BakBak-Regular.ufo
<glyph name="percent" format="2">
	<advance width="890"/>
	<unicode hex="0025"/>
	<note>
		percent
	</note>
	<outline>
		<contour>
			<point x="850" y="178" type="curve" smooth="yes"/>
			<point x="849" y="298"/>
			<point x="796" y="356"/>
			<point x="689" y="356" type="curve" smooth="yes"/>
			<point x="582" y="356"/>
			<point x="529" y="298"/>
			<point x="529" y="178" type="curve" smooth="yes"/>
			<point x="529" y="58"/>
			<point x="582" y="0"/>
			<point x="689" y="0" type="curve" smooth="yes"/>
			<point x="798" y="0"/>
			<point x="851" y="58"/>
		</contour>
		<contour>
			<point x="690" y="107" type="curve" smooth="yes"/>
			<point x="654" y="107"/>
			<point x="637" y="130"/>
			<point x="636" y="178" type="curve" smooth="yes"/>
			<point x="635" y="226"/>
			<point x="652" y="249"/>
			<point x="690" y="249" type="curve" smooth="yes"/>
			<point x="727" y="249"/>
			<point x="744" y="226"/>
			<point x="743" y="178" type="curve" smooth="yes"/>
			<point x="742" y="130"/>
			<point x="725" y="107"/>
		</contour>
		<contour>
			<point x="362" y="473" type="curve" smooth="yes"/>
			<point x="362" y="593"/>
			<point x="309" y="651"/>
			<point x="201" y="651" type="curve" smooth="yes"/>
			<point x="93" y="651"/>
			<point x="40" y="593"/>
			<point x="40" y="473" type="curve" smooth="yes"/>
			<point x="40" y="354"/>
			<point x="93" y="296"/>
			<point x="201" y="296" type="curve" smooth="yes"/>
			<point x="309" y="296"/>
			<point x="362" y="354"/>
		</contour>
		<contour>
			<point x="201" y="403" type="curve" smooth="yes"/>
			<point x="165" y="403"/>
			<point x="148" y="426"/>
			<point x="148" y="473" type="curve" smooth="yes"/>
			<point x="148" y="520"/>
			<point x="165" y="543"/>
			<point x="201" y="543" type="curve" smooth="yes"/>
			<point x="236" y="543"/>
			<point x="253" y="520"/>
			<point x="253" y="473" type="curve" smooth="yes"/>
			<point x="253" y="426"/>
			<point x="236" y="403"/>
		</contour>
		<contour>
			<point x="155" y="9" type="line"/>
			<point x="305" y="9" type="line"/>
			<point x="731" y="642" type="line"/>
			<point x="581" y="642" type="line"/>
		</contour>
	</outline>
</glyph>
<glyph name="plus" format="2">
	<advance width="468"/>
	<unicode hex="002B"/>
	<note>
		plus
	</note>
	<outline>
		<contour>
			<point x="308" y="535" type="line"/>
			<point x="160" y="535" type="line"/>
			<point x="160" y="397" type="line"/>
			<point x="30" y="397" type="line"/>
			<point x="30" y="273" type="line"/>
			<point x="160" y="273" type="line"/>
			<point x="160" y="135" type="line"/>
			<point x="308" y="135" type="line"/>
			<point x="308" y="273" type="line"/>
			<point x="438" y="273" type="line"/>
			<point x="438" y="397" type="line"/>
			<point x="308" y="397" type="line"/>
		</contour>
	</outline>
</glyph>
<glyph name="slash" format="2">
	<advance width="464"/>
	<unicode hex="002F"/>
	<note>
		slash
	</note>
	<outline>
		<contour>
			<point x="264" y="720" type="line"/>
			<point x="50" y="-104" type="line"/>
			<point x="200" y="-104" type="line"/>
			<point x="414" y="720" type="line"/>
		</contour>
	</outline>
</glyph>
<glyph name="two" format="2">
	<advance width="519"/>
	<unicode hex="0032"/>
	<guideline x="-220" y="623" angle="0"/>
	<note>
		two
	</note>
	<outline>
		<contour>
			<point x="42" y="578" type="curve"/>
			<point x="42" y="447" type="line"/>
			<point x="51" y="447" type="line"/>
			<point x="101" y="475"/>
			<point x="173" y="501"/>
			<point x="237" y="501" type="curve" smooth="yes"/>
			<point x="303" y="501"/>
			<point x="342" y="483"/>
			<point x="343" y="432" type="curve" smooth="yes"/>
			<point x="344" y="389"/>
			<point x="298" y="363"/>
			<point x="222" y="331" type="curve" smooth="yes"/>
			<point x="70" y="267"/>
			<point x="25" y="218"/>
			<point x="25" y="116" type="curve" smooth="yes"/>
			<point x="25" y="4" type="line"/>
			<point x="499" y="4" type="line"/>
			<point x="499" y="131" type="line"/>
			<point x="173" y="131" type="line"/>
			<point x="173" y="162"/>
			<point x="210" y="190"/>
			<point x="329" y="235" type="curve" smooth="yes"/>
			<point x="451" y="281"/>
			<point x="494" y="339"/>
			<point x="494" y="444" type="curve" smooth="yes"/>
			<point x="494" y="577"/>
			<point x="401" y="628"/>
			<point x="258" y="628" type="curve" smooth="yes"/>
			<point x="169" y="628"/>
			<point x="89" y="607"/>
		</contour>
	</outline>
</glyph>
<glyph name="four" format="2">
	<advance width="596"/>
	<unicode hex="0034"/>
	<note>
		four
	</note>
	<outline>
		<contour>
			<point x="20" y="239" type="line"/>
			<point x="20" y="110" type="line"/>
			<point x="330" y="110" type="line"/>
			<point x="333" y="7" type="line"/>
			<point x="483" y="7" type="line"/>
			<point x="483" y="110" type="line"/>
			<point x="586" y="110" type="line"/>
			<point x="586" y="228" type="line"/>
			<point x="481" y="228" type="line"/>
			<point x="481" y="622" type="line"/>
			<point x="252" y="622" type="line"/>
		</contour>
		<contour>
			<point x="341" y="228" type="line"/>
			<point x="172" y="228" type="line"/>
			<point x="341" y="532" type="line"/>
		</contour>
	</outline>
</glyph>
<glyph name="seven" format="2">
	<advance width="492"/>
	<unicode hex="0037"/>
	<note>
		seven
	</note>
	<outline>
		<contour>
			<point x="299" y="495" type="line"/>
			<point x="119" y="12" type="line"/>
			<point x="118" y="9" type="line"/>
			<point x="278" y="9" type="line"/>
			<point x="462" y="495" type="line"/>
			<point x="462" y="623" type="line"/>
			<point x="10" y="623" type="line"/>
			<point x="10" y="495" type="line"/>
		</contour>
	</outline>
</glyph>
<glyph name="colon" format="2">
	<advance width="310"/>
	<unicode hex="003A"/>
	<note>
		colon
	</note>
	<outline>
		<contour>
			<point x="247" y="457" type="curve"/>
			<point x="216" y="464"/>
			<point x="186" y="466"/>
			<point x="156" y="466" type="curve" smooth="yes"/>
			<point x="126" y="466"/>
			<point x="95" y="464"/>
			<point x="65" y="457" type="curve"/>
			<point x="61" y="431"/>
			<point x="60" y="410"/>
			<point x="60" y="392" type="curve" smooth="yes"/>
			<point x="60" y="372"/>
			<point x="61" y="353"/>
			<point x="65" y="328" type="curve"/>
			<point x="95" y="322"/>
			<point x="125" y="319"/>
			<point x="154" y="319" type="curve" smooth="yes"/>
			<point x="185" y="319"/>
			<point x="215" y="322"/>
			<point x="247" y="328" type="curve"/>
			<point x="249" y="354"/>
			<point x="250" y="373"/>
			<point x="250" y="393" type="curve" smooth="yes"/>
			<point x="250" y="413"/>
			<point x="249" y="431"/>
		</contour>
		<contour>
			<point x="247" y="139" type="curve"/>
			<point x="216" y="145"/>
			<point x="186" y="147"/>
			<point x="156" y="147" type="curve" smooth="yes"/>
			<point x="126" y="147"/>
			<point x="95" y="145"/>
			<point x="66" y="139" type="curve"/>
			<point x="61" y="112"/>
			<point x="60" y="92"/>
			<point x="60" y="73" type="curve" smooth="yes"/>
			<point x="60" y="53"/>
			<point x="61" y="34"/>
			<point x="66" y="10" type="curve"/>
			<point x="95" y="3"/>
			<point x="125" y="0"/>
			<point x="154" y="0" type="curve" smooth="yes"/>
			<point x="185" y="0"/>
			<point x="215" y="3"/>
			<point x="247" y="10" type="curve"/>
			<point x="249" y="35"/>
			<point x="250" y="55"/>
			<point x="250" y="74" type="curve" smooth="yes"/>
			<point x="250" y="94"/>
			<point x="249" y="112"/>
		</contour>
	</outline>
</glyph>
<glyph name="less" format="2">
	<advance width="482"/>
	<unicode hex="003C"/>
	<note>
		less
	</note>
	<outline>
		<contour>
			<point x="50" y="437" type="line"/>
			<point x="50" y="235" type="line"/>
			<point x="432" y="97" type="line"/>
			<point x="432" y="241" type="line"/>
			<point x="184" y="335" type="line"/>
			<point x="184" y="337" type="line"/>
			<point x="432" y="430" type="line"/>
			<point x="432" y="575" type="line"/>
		</contour>
	</outline>
</glyph>
<glyph name="equal" format="2">
	<advance width="501"/>
	<unicode hex="003D"/>
	<note>
		equal
	</note>
	<outline>
		<contour>
			<point x="50" y="496" type="line"/>
			<point x="50" y="370" type="line"/>
			<point x="451" y="370" type="line"/>
			<point x="451" y="496" type="line"/>
		</contour>
		<contour>
			<point x="50" y="291" type="line"/>
			<point x="50" y="166" type="line"/>
			<point x="451" y="166" type="line"/>
			<point x="451" y="291" type="line"/>
		</contour>
	</outline>
</glyph>
<glyph name="A" format="2">
	<advance width="650"/>
	<unicode hex="0041"/>
	<outline>
		<contour>
			<point x="640" y="12" type="line"/>
			<point x="435" y="642" type="line"/>
			<point x="215" y="642" type="line"/>
			<point x="10" y="11" type="line"/>
			<point x="10" y="9" type="line"/>
			<point x="180" y="9" type="line"/>
			<point x="220" y="133"/>
			<point x="297" y="396"/>
			<point x="323" y="528" type="curve"/>
			<point x="327" y="528" type="line"/>
			<point x="353" y="396"/>
			<point x="432" y="133"/>
			<point x="470" y="9" type="curve"/>
			<point x="640" y="9" type="line"/>
		</contour>
		<contour>
			<point x="150" y="130" type="line"/>
			<point x="520" y="130" type="line"/>
			<point x="520" y="255" type="line"/>
			<point x="150" y="255" type="line"/>
		</contour>
	</outline>
</glyph>
<glyph name="F" format="2">
	<advance width="545"/>
	<unicode hex="0046"/>
	<outline>
		<contour>
			<point x="220" y="9" type="line"/>
			<point x="220" y="642" type="line"/>
			<point x="60" y="642" type="line"/>
			<point x="60" y="9" type="line"/>
		</contour>
		<contour>
			<point x="160" y="512" type="line"/>
			<point x="530" y="512" type="line"/>
			<point x="530" y="642" type="line"/>
			<point x="160" y="642" type="line"/>
		</contour>
		<contour>
			<point x="160" y="237" type="line"/>
			<point x="510" y="237" type="line"/>
			<point x="510" y="367" type="line"/>
			<point x="160" y="367" type="line"/>
		</contour>
	</outline>
</glyph>
<glyph name="J" format="2">
	<advance width="463"/>
	<unicode hex="004A"/>
	<outline>
		<contour>
			<point x="248" y="642" type="line"/>
			<point x="249" y="258" type="line" smooth="yes"/>
			<point x="249" y="164"/>
			<point x="233" y="142"/>
			<point x="149" y="142" type="curve" smooth="yes"/>
			<point x="95" y="142"/>
			<point x="65" y="148"/>
			<point x="24" y="162" type="curve"/>
			<point x="20" y="160" type="line"/>
			<point x="20" y="23" type="line"/>
			<point x="72" y="6"/>
			<point x="112" y="0"/>
			<point x="180" y="0" type="curve" smooth="yes"/>
			<point x="345" y="0"/>
			<point x="408" y="78"/>
			<point x="408" y="241" type="curve" smooth="yes"/>
			<point x="408" y="642" type="line"/>
		</contour>
	</outline>
</glyph>
<glyph name="R" format="2">
	<advance width="645"/>
	<unicode hex="0052"/>
	<outline>
		<contour>
			<point x="220" y="9" type="line"/>
			<point x="220" y="620" type="line"/>
			<point x="60" y="620" type="line"/>
			<point x="60" y="9" type="line"/>
		</contour>
		<contour>
			<point x="614" y="9" type="line"/>
			<point x="614" y="10" type="line"/>
			<point x="568" y="85"/>
			<point x="496" y="193"/>
			<point x="447" y="225" type="curve"/>
			<point x="448" y="228" type="line"/>
			<point x="533" y="246"/>
			<point x="590" y="327"/>
			<point x="590" y="431" type="curve" smooth="yes"/>
			<point x="590" y="569"/>
			<point x="520" y="642"/>
			<point x="362" y="642" type="curve" smooth="yes"/>
			<point x="60" y="642" type="line"/>
			<point x="60" y="512" type="line"/>
			<point x="336" y="512" type="line" smooth="yes"/>
			<point x="402" y="512"/>
			<point x="425" y="487"/>
			<point x="425" y="427" type="curve" smooth="yes"/>
			<point x="425" y="367"/>
			<point x="402" y="342"/>
			<point x="336" y="342" type="curve" smooth="yes"/>
			<point x="219" y="342" type="line"/>
			<point x="214" y="341" type="line"/>
			<point x="212" y="212" type="line"/>
			<point x="241" y="212" type="line"/>
			<point x="290" y="212"/>
			<point x="292" y="211"/>
			<point x="320" y="169" type="curve" smooth="yes"/>
			<point x="428" y="9" type="line"/>
		</contour>
	</outline>
</glyph>
<glyph name="S" format="2">
	<advance width="607"/>
	<unicode hex="0053"/>
	<outline>
		<contour>
			<point x="44" y="172" type="curve"/>
			<point x="40" y="169" type="line"/>
			<point x="40" y="28" type="line"/>
			<point x="110" y="10"/>
			<point x="181" y="0"/>
			<point x="275" y="0" type="curve" smooth="yes"/>
			<point x="488" y="0"/>
			<point x="567" y="66"/>
			<point x="567" y="200" type="curve" smooth="yes"/>
			<point x="567" y="310"/>
			<point x="528" y="369"/>
			<point x="368" y="387" type="curve" smooth="yes"/>
			<point x="305" y="394" type="line" smooth="yes"/>
			<point x="216" y="404"/>
			<point x="200" y="410"/>
			<point x="200" y="454" type="curve" smooth="yes"/>
			<point x="200" y="497"/>
			<point x="226" y="511"/>
			<point x="330" y="511" type="curve" smooth="yes"/>
			<point x="402" y="511"/>
			<point x="469" y="500"/>
			<point x="537" y="476" type="curve"/>
			<point x="540" y="480" type="line"/>
			<point x="543" y="616" type="line"/>
			<point x="486" y="639"/>
			<point x="413" y="651"/>
			<point x="322" y="651" type="curve" smooth="yes"/>
			<point x="115" y="651"/>
			<point x="40" y="595"/>
			<point x="40" y="460" type="curve" smooth="yes"/>
			<point x="40" y="346"/>
			<point x="85" y="281"/>
			<point x="234" y="267" type="curve" smooth="yes"/>
			<point x="300" y="261" type="line" smooth="yes"/>
			<point x="390" y="253"/>
			<point x="407" y="240"/>
			<point x="407" y="203" type="curve" smooth="yes"/>
			<point x="407" y="158"/>
			<point x="387" y="140"/>
			<point x="245" y="140" type="curve" smooth="yes"/>
			<point x="175" y="140"/>
			<point x="103" y="152"/>
		</contour>
	</outline>
</glyph>
<glyph name="braceleft" format="2">
	<advance width="408"/>
	<unicode hex="007B"/>
	<note>
		braceleft
	</note>
	<outline>
		<contour>
			<point x="259" y="-88" type="curve" smooth="yes"/>
			<point x="259" y="188" type="line"/>
			<point x="259" y="265"/>
			<point x="206" y="269"/>
			<point x="180" y="271" type="curve"/>
			<point x="180" y="275" type="line"/>
			<point x="206" y="278"/>
			<point x="259" y="290"/>
			<point x="259" y="352" type="curve" smooth="yes"/>
			<point x="259" y="636" type="line" smooth="yes"/>
			<point x="259" y="672"/>
			<point x="275" y="684"/>
			<point x="307" y="684" type="curve" smooth="yes"/>
			<point x="316" y="684"/>
			<point x="329" y="682"/>
			<point x="337" y="679" type="curve"/>
			<point x="338" y="680" type="line"/>
			<point x="338" y="787" type="line"/>
			<point x="321" y="793"/>
			<point x="300" y="797"/>
			<point x="271" y="797" type="curve" smooth="yes"/>
			<point x="167" y="797"/>
			<point x="133" y="743"/>
			<point x="133" y="657" type="curve" smooth="yes"/>
			<point x="133" y="365" type="line" smooth="yes"/>
			<point x="133" y="329"/>
			<point x="82" y="329"/>
			<point x="65" y="329" type="curve"/>
			<point x="65" y="220" type="line"/>
			<point x="82" y="220"/>
			<point x="133" y="220"/>
			<point x="133" y="175" type="curve" smooth="yes"/>
			<point x="133" y="-109" type="line" smooth="yes"/>
			<point x="133" y="-195"/>
			<point x="167" y="-249"/>
			<point x="271" y="-249" type="curve" smooth="yes"/>
			<point x="300" y="-249"/>
			<point x="321" y="-245"/>
			<point x="338" y="-239" type="curve"/>
			<point x="338" y="-132" type="line"/>
			<point x="337" y="-131" type="line"/>
			<point x="329" y="-134"/>
			<point x="316" y="-136"/>
			<point x="307" y="-136" type="curve" smooth="yes"/>
			<point x="275" y="-136"/>
			<point x="259" y="-124"/>
		</contour>
	</outline>
</glyph>
<glyph name="asciitilde" format="2">
	<advance width="596"/>
	<unicode hex="007E"/>
	<note>
		asciitilde
	</note>
	<outline>
		<contour>
			<point x="437" y="234" type="curve" smooth="yes"/>
			<point x="504" y="234"/>
			<point x="556" y="271"/>
			<point x="556" y="357" type="curve" smooth="yes"/>
			<point x="556" y="386"/>
			<point x="551" y="408"/>
			<point x="551" y="408" type="curve" smooth="yes"/>
			<point x="439" y="408" type="line"/>
			<point x="440" y="402"/>
			<point x="441" y="396"/>
			<point x="441" y="391" type="curve" smooth="yes"/>
			<point x="441" y="363"/>
			<point x="425" y="352"/>
			<point x="402" y="352" type="curve" smooth="yes"/>
			<point x="337" y="352"/>
			<point x="231" y="421"/>
			<point x="158" y="421" type="curve" smooth="yes"/>
			<point x="92" y="421"/>
			<point x="40" y="384"/>
			<point x="40" y="298" type="curve" smooth="yes"/>
			<point x="40" y="271"/>
			<point x="44" y="247"/>
			<point x="44" y="247" type="curve"/>
			<point x="156" y="247" type="line"/>
			<point x="155" y="253"/>
			<point x="154" y="259"/>
			<point x="154" y="264" type="curve" smooth="yes"/>
			<point x="154" y="291"/>
			<point x="170" y="303"/>
			<point x="194" y="303" type="curve" smooth="yes"/>
			<point x="258" y="303"/>
			<point x="365" y="234"/>
		</contour>
	</outline>
</glyph>
<glyph name="cent" format="2">
	<advance width="474"/>
	<unicode hex="00A2"/>
	<outline>
		<contour>
			<point x="363" y="616" type="line"/>
			<point x="213" y="616" type="line"/>
			<point x="213" y="460" type="line"/>
			<point x="363" y="460" type="line"/>
		</contour>
		<contour>
			<point x="363" y="86" type="line"/>
			<point x="213" y="86" type="line"/>
			<point x="213" y="-110" type="line"/>
			<point x="363" y="-110" type="line"/>
		</contour>
		<component base="c"/>
	</outline>
</glyph>
<glyph name="macron" format="2">
	<advance width="324"/>
	<unicode hex="00AF"/>
	<outline>
		<contour>
			<point x="314" y="782" type="line"/>
			<point x="10" y="782" type="line"/>
			<point x="10" y="682" type="line"/>
			<point x="314" y="682" type="line"/>
		</contour>
	</outline>
</glyph>
<glyph name="threesuperior" format="2">
	<advance width="397"/>
	<unicode hex="00B3"/>
	<outline>
		<contour>
			<point x="61" y="634" type="curve"/>
			<point x="61" y="548" type="line"/>
			<point x="63" y="547" type="line"/>
			<point x="92" y="555"/>
			<point x="136" y="562"/>
			<point x="178" y="562" type="curve" smooth="yes"/>
			<point x="239" y="562"/>
			<point x="261" y="553"/>
			<point x="261" y="526" type="curve" smooth="yes"/>
			<point x="261" y="499"/>
			<point x="243" y="490"/>
			<point x="181" y="490" type="curve" smooth="yes"/>
			<point x="136" y="490" type="line"/>
			<point x="136" y="397" type="line"/>
			<point x="190" y="397" type="line" smooth="yes"/>
			<point x="243" y="397"/>
			<point x="261" y="388"/>
			<point x="261" y="360" type="curve" smooth="yes"/>
			<point x="261" y="330"/>
			<point x="241" y="318"/>
			<point x="182" y="318" type="curve" smooth="yes"/>
			<point x="127" y="318"/>
			<point x="87" y="326"/>
			<point x="44" y="342" type="curve"/>
			<point x="40" y="342" type="line"/>
			<point x="40" y="256" type="line"/>
			<point x="75" y="240"/>
			<point x="139" y="227"/>
			<point x="203" y="229" type="curve" smooth="yes"/>
			<point x="322" y="233"/>
			<point x="367" y="272"/>
			<point x="367" y="353" type="curve" smooth="yes"/>
			<point x="367" y="401"/>
			<point x="342" y="438"/>
			<point x="272" y="442" type="curve"/>
			<point x="272" y="445" type="line"/>
			<point x="339" y="453"/>
			<point x="362" y="494"/>
			<point x="362" y="548" type="curve" smooth="yes"/>
			<point x="362" y="618"/>
			<point x="322" y="651"/>
			<point x="205" y="651" type="curve" smooth="yes"/>
			<point x="148" y="651"/>
			<point x="100" y="644"/>
		</contour>
	</outline>
</glyph>
<glyph name="cedilla" format="2">
	<advance width="223"/>
	<unicode hex="00B8"/>
	<outline>
		<contour>
			<point x="2" y="-131" type="curve"/>
			<point x="-3" y="-134" type="line"/>
			<point x="-3" y="-211" type="line"/>
			<point x="23" y="-216"/>
			<point x="47" y="-218"/>
			<point x="101" y="-218" type="curve" smooth="yes"/>
			<point x="192" y="-218"/>
			<point x="226" y="-193"/>
			<point x="226" y="-119" type="curve" smooth="yes"/>
			<point x="226" y="-61"/>
			<point x="200" y="-41"/>
			<point x="140" y="-35" type="curve"/>
			<point x="153" y="20" type="line"/>
			<point x="63" y="20" type="line"/>
			<point x="40" y="-91" type="line"/>
			<point x="54" y="-91" type="line"/>
			<point x="124" y="-93"/>
			<point x="142" y="-99"/>
			<point x="142" y="-115" type="curve" smooth="yes"/>
			<point x="142" y="-130"/>
			<point x="126" y="-137"/>
			<point x="72" y="-137" type="curve" smooth="yes"/>
			<point x="31" y="-137"/>
			<point x="14" y="-134"/>
		</contour>
	</outline>
</glyph>
<glyph name="multiply" format="2">
	<advance width="479"/>
	<unicode hex="00D7"/>
	<note>
		multiply
	</note>
	<outline>
		<contour>
			<point x="342" y="130" type="line"/>
			<point x="438" y="226" type="line"/>
			<point x="336" y="329" type="line"/>
			<point x="439" y="431" type="line"/>
			<point x="342" y="529" type="line"/>
			<point x="239" y="427" type="line"/>
			<point x="137" y="528" type="line"/>
			<point x="40" y="431" type="line"/>
			<point x="142" y="329" type="line"/>
			<point x="41" y="227" type="line"/>
			<point x="138" y="131" type="line"/>
			<point x="239" y="232" type="line"/>
		</contour>
	</outline>
</glyph>
<glyph name="ae" format="2">
	<advance width="878"/>
	<unicode hex="00E6"/>
	<outline>
		<contour>
			<point x="612" y="501" type="curve" smooth="yes"/>
			<point x="537" y="501"/>
			<point x="480" y="487"/>
			<point x="440" y="456" type="curve"/>
			<point x="398" y="490"/>
			<point x="334" y="501"/>
			<point x="246" y="501" type="curve" smooth="yes"/>
			<point x="185" y="501"/>
			<point x="105" y="490"/>
			<point x="65" y="478" type="curve"/>
			<point x="64" y="362" type="line"/>
			<point x="67" y="360" type="line"/>
			<point x="109" y="370"/>
			<point x="169" y="381"/>
			<point x="228" y="381" type="curve" smooth="yes"/>
			<point x="322" y="381"/>
			<point x="354" y="367"/>
			<point x="363" y="310" type="curve"/>
			<point x="214" y="310" type="line" smooth="yes"/>
			<point x="83" y="310"/>
			<point x="25" y="254"/>
			<point x="25" y="162" type="curve" smooth="yes"/>
			<point x="25" y="55"/>
			<point x="94" y="0"/>
			<point x="218" y="0" type="curve" smooth="yes"/>
			<point x="320" y="0"/>
			<point x="378" y="22"/>
			<point x="407" y="79" type="curve"/>
			<point x="409" y="79" type="line"/>
			<point x="453" y="21"/>
			<point x="529" y="0"/>
			<point x="633" y="0" type="curve" smooth="yes"/>
			<point x="723" y="0"/>
			<point x="790" y="11"/>
			<point x="828" y="25" type="curve"/>
			<point x="828" y="136" type="line"/>
			<point x="824" y="139" type="line"/>
			<point x="776" y="132"/>
			<point x="736" y="129"/>
			<point x="667" y="129" type="curve" smooth="yes"/>
			<point x="563" y="129"/>
			<point x="523" y="142"/>
			<point x="513" y="201" type="curve"/>
			<point x="842" y="201" type="line"/>
			<point x="846" y="205" type="line"/>
			<point x="851" y="233"/>
			<point x="853" y="264"/>
			<point x="853" y="289" type="curve" smooth="yes"/>
			<point x="853" y="419"/>
			<point x="793" y="501"/>
		</contour>
		<contour>
			<point x="714" y="306" type="curve"/>
			<point x="510" y="306" type="line"/>
			<point x="510" y="353"/>
			<point x="528" y="384"/>
			<point x="612" y="384" type="curve" smooth="yes"/>
			<point x="698" y="384"/>
			<point x="714" y="353"/>
		</contour>
		<contour>
			<point x="249" y="118" type="curve" smooth="yes"/>
			<point x="207" y="118"/>
			<point x="172" y="128"/>
			<point x="172" y="162" type="curve" smooth="yes"/>
			<point x="172" y="190"/>
			<point x="192" y="208"/>
			<point x="251" y="208" type="curve" smooth="yes"/>
			<point x="366" y="208" type="line"/>
			<point x="367" y="204"/>
			<point x="367" y="200"/>
			<point x="367" y="196" type="curve"/>
			<point x="365" y="131"/>
			<point x="326" y="118"/>
		</contour>
	</outline>
</glyph>
<glyph name="Hbar" format="2">
	<advance width="680"/>
	<unicode hex="0126"/>
	<outline>
		<contour>
			<point x="170" y="380" type="line"/>
			<point x="499" y="380" type="line"/>
			<point x="499" y="500" type="line"/>
			<point x="170" y="500" type="line"/>
		</contour>
		<contour>
			<point x="220" y="9" type="line"/>
			<point x="220" y="642" type="line"/>
			<point x="60" y="642" type="line"/>
			<point x="60" y="9" type="line"/>
		</contour>
		<contour>
			<point x="620" y="9" type="line"/>
			<point x="620" y="642" type="line"/>
			<point x="460" y="642" type="line"/>
			<point x="460" y="9" type="line"/>
		</contour>
		<contour>
			<point x="160" y="190" type="line"/>
			<point x="500" y="190" type="line"/>
			<point x="500" y="310" type="line"/>
			<point x="160" y="310" type="line"/>
		</contour>
	</outline>
</glyph>
<glyph name="Eng" format="2">
	<advance width="690"/>
	<unicode hex="014A"/>
	<outline>
		<contour>
			<point x="60" y="9" type="line"/>
			<point x="220" y="9" type="line"/>
			<point x="220" y="253" type="line" smooth="yes"/>
			<point x="220" y="305"/>
			<point x="218" y="359"/>
			<point x="200" y="423" type="curve"/>
			<point x="203" y="427" type="line"/>
			<point x="233" y="367"/>
			<point x="249" y="340"/>
			<point x="291" y="277" type="curve" smooth="yes"/>
			<point x="471" y="9" type="line"/>
			<point x="630" y="9" type="line"/>
			<point x="630" y="642" type="line"/>
			<point x="470" y="642" type="line"/>
			<point x="470" y="388" type="line" smooth="yes"/>
			<point x="470" y="336"/>
			<point x="477" y="284"/>
			<point x="490" y="228" type="curve"/>
			<point x="487" y="224" type="line"/>
			<point x="457" y="284"/>
			<point x="441" y="311"/>
			<point x="399" y="374" type="curve" smooth="yes"/>
			<point x="219" y="642" type="line"/>
			<point x="60" y="642" type="line"/>
		</contour>
		<contour>
			<point x="304" y="-83" type="curve"/>
			<point x="301" y="-86" type="line"/>
			<point x="301" y="-222" type="line"/>
			<point x="330" y="-228"/>
			<point x="361" y="-230"/>
			<point x="402" y="-230" type="curve" smooth="yes"/>
			<point x="567" y="-230"/>
			<point x="630" y="-152"/>
			<point x="630" y="11" type="curve" smooth="yes"/>
			<point x="630" y="154" type="line"/>
			<point x="471" y="154" type="line"/>
			<point x="471" y="28" type="line" smooth="yes"/>
			<point x="471" y="-66"/>
			<point x="455" y="-88"/>
			<point x="371" y="-88" type="curve" smooth="yes"/>
			<point x="345" y="-88"/>
			<point x="323" y="-86"/>
		</contour>
	</outline>
</glyph>
<glyph name="oe" format="2">
	<advance width="892"/>
	<unicode hex="0153"/>
	<outline>
		<contour>
			<point x="728" y="306" type="curve"/>
			<point x="524" y="306" type="line"/>
			<point x="524" y="353"/>
			<point x="542" y="384"/>
			<point x="626" y="384" type="curve" smooth="yes"/>
			<point x="712" y="384"/>
			<point x="728" y="353"/>
		</contour>
		<contour>
			<point x="275" y="137" type="curve" smooth="yes"/>
			<point x="200" y="137"/>
			<point x="176" y="166"/>
			<point x="176" y="252" type="curve" smooth="yes"/>
			<point x="176" y="333"/>
			<point x="200" y="366"/>
			<point x="275" y="366" type="curve" smooth="yes"/>
			<point x="352" y="366"/>
			<point x="374" y="333"/>
			<point x="374" y="252" type="curve" smooth="yes"/>
			<point x="374" y="166"/>
			<point x="352" y="137"/>
		</contour>
		<contour>
			<point x="454" y="449" type="curve"/>
			<point x="452" y="449" type="line"/>
			<point x="412" y="478"/>
			<point x="352" y="501"/>
			<point x="275" y="501" type="curve" smooth="yes"/>
			<point x="94" y="501"/>
			<point x="25" y="427"/>
			<point x="25" y="249" type="curve" smooth="yes"/>
			<point x="25" y="73"/>
			<point x="94" y="0"/>
			<point x="275" y="0" type="curve" smooth="yes"/>
			<point x="354" y="0"/>
			<point x="415" y="24"/>
			<point x="454" y="53" type="curve"/>
			<point x="456" y="53" type="line"/>
			<point x="502" y="22"/>
			<point x="568" y="0"/>
			<point x="647" y="0" type="curve" smooth="yes"/>
			<point x="737" y="0"/>
			<point x="804" y="11"/>
			<point x="842" y="25" type="curve"/>
			<point x="842" y="136" type="line"/>
			<point x="838" y="139" type="line"/>
			<point x="790" y="132"/>
			<point x="750" y="129"/>
			<point x="681" y="129" type="curve" smooth="yes"/>
			<point x="577" y="129"/>
			<point x="537" y="142"/>
			<point x="527" y="201" type="curve"/>
			<point x="856" y="201" type="line"/>
			<point x="860" y="205" type="line"/>
			<point x="865" y="233"/>
			<point x="867" y="264"/>
			<point x="867" y="289" type="curve" smooth="yes"/>
			<point x="867" y="419"/>
			<point x="807" y="501"/>
			<point x="626" y="501" type="curve" smooth="yes"/>
			<point x="554" y="501"/>
			<point x="495" y="478"/>
		</contour>
	</outline>
</glyph>
<glyph name="longs" format="2">
	<advance width="380"/>
	<unicode hex="017F"/>
	<outline>
		<contour>
			<point x="91" y="521" type="curve" smooth="yes"/>
			<point x="91" y="9" type="line"/>
			<point x="246" y="9" type="line"/>
			<point x="246" y="529" type="line" smooth="yes"/>
			<point x="246" y="563"/>
			<point x="262" y="580"/>
			<point x="307" y="580" type="curve" smooth="yes"/>
			<point x="328" y="580"/>
			<point x="353" y="578"/>
			<point x="377" y="575" type="curve"/>
			<point x="380" y="577" type="line"/>
			<point x="380" y="689" type="line"/>
			<point x="353" y="698"/>
			<point x="317" y="707"/>
			<point x="274" y="707" type="curve" smooth="yes"/>
			<point x="153" y="707"/>
			<point x="91" y="653"/>
		</contour>
		<contour>
			<point x="20" y="365" type="line"/>
			<point x="180" y="365" type="line"/>
			<point x="180" y="495" type="line"/>
			<point x="20" y="495" type="line"/>
		</contour>
	</outline>
</glyph>
<glyph name="dvUU" format="2">
	<advance width="668"/>
	<unicode hex="090A"/>
	<anchor x="328" y="607" name="abvm.bindu"/>
	<outline>
		<contour>
			<point x="322" y="315" type="curve"/>
			<point x="323" y="306" type="line"/>
			<point x="368" y="279"/>
			<point x="408" y="224"/>
			<point x="408" y="169" type="curve" smooth="yes"/>
			<point x="408" y="64"/>
			<point x="350" y="0"/>
			<point x="205" y="0" type="curve" smooth="yes"/>
			<point x="117" y="0"/>
			<point x="50" y="13"/>
			<point x="20" y="25" type="curve"/>
			<point x="20" y="148" type="line"/>
			<point x="24" y="148" type="line"/>
			<point x="54" y="136"/>
			<point x="111" y="124"/>
			<point x="158" y="124" type="curve" smooth="yes"/>
			<point x="249" y="124"/>
			<point x="269" y="139"/>
			<point x="269" y="188" type="curve" smooth="yes"/>
			<point x="269" y="236"/>
			<point x="242" y="248"/>
			<point x="186" y="248" type="curve" smooth="yes"/>
			<point x="114" y="248" type="line"/>
			<point x="114" y="371" type="line"/>
			<point x="176" y="371" type="line" smooth="yes"/>
			<point x="221" y="371"/>
			<point x="240" y="393"/>
			<point x="240" y="437" type="curve" smooth="yes"/>
			<point x="240" y="488"/>
			<point x="206" y="500"/>
			<point x="144" y="500" type="curve"/>
			<point x="345" y="502" type="line"/>
			<point x="345" y="498" type="line"/>
			<point x="371" y="485"/>
			<point x="385" y="457"/>
			<point x="385" y="418" type="curve" smooth="yes"/>
			<point x="385" y="362"/>
			<point x="357" y="334"/>
		</contour>
		<contour>
			<point x="728" y="500" type="line"/>
			<point x="-70" y="500" type="line"/>
			<point x="-70" y="607" type="line"/>
			<point x="728" y="607" type="line"/>
		</contour>
		<contour>
			<point x="311" y="201" type="curve"/>
			<point x="314" y="303" type="line"/>
			<point x="355" y="332"/>
			<point x="430" y="345"/>
			<point x="493" y="345" type="curve" smooth="yes"/>
			<point x="605" y="345"/>
			<point x="654" y="302"/>
			<point x="654" y="188" type="curve" smooth="yes"/>
			<point x="654" y="66"/>
			<point x="593" y="37"/>
			<point x="496" y="40" type="curve" smooth="yes"/>
			<point x="467" y="41" type="line"/>
			<point x="467" y="154" type="line"/>
			<point x="469" y="157" type="line"/>
			<point x="504" y="158"/>
			<point x="516" y="159"/>
			<point x="516" y="191" type="curve" smooth="yes"/>
			<point x="516" y="230"/>
			<point x="499" y="239"/>
			<point x="427" y="239" type="curve" smooth="yes"/>
			<point x="378" y="239"/>
			<point x="350" y="228"/>
		</contour>
	</outline>
</glyph>
<glyph name="dvJA" format="2">
	<advance width="673"/>
	<unicode hex="091C"/>
	<outline>
		<contour>
			<point x="183" y="0" type="curve" smooth="yes"/>
			<point x="116" y="0"/>
			<point x="63" y="8"/>
			<point x="21" y="20" type="curve"/>
			<point x="21" y="134" type="line"/>
			<point x="23" y="135" type="line"/>
			<point x="55" y="127"/>
			<point x="93" y="121"/>
			<point x="140" y="121" type="curve" smooth="yes"/>
			<point x="204" y="121"/>
			<point x="225" y="135"/>
			<point x="225" y="209" type="curve" smooth="yes"/>
			<point x="225" y="269"/>
			<point x="206" y="287"/>
			<point x="124" y="287" type="curve"/>
			<point x="223" y="303" type="line"/>
			<point x="304" y="297" type="line"/>
			<point x="304" y="295" type="line"/>
			<point x="342" y="280"/>
			<point x="361" y="237"/>
			<point x="361" y="180" type="curve" smooth="yes"/>
			<point x="361" y="47"/>
			<point x="323" y="0"/>
		</contour>
		<contour>
			<point x="94" y="287" type="line"/>
			<point x="94" y="403" type="line"/>
			<point x="569" y="403" type="line"/>
			<point x="569" y="297" type="line"/>
			<point x="292" y="297" type="line"/>
			<point x="227" y="297" type="line"/>
			<point x="124" y="287" type="line"/>
		</contour>
		<contour>
			<point x="466" y="9" type="line"/>
			<point x="466" y="502" type="line"/>
			<point x="613" y="502" type="line"/>
			<point x="613" y="9" type="line"/>
		</contour>
		<contour>
			<point x="-35" y="500" type="line"/>
			<point x="-35" y="607" type="line"/>
			<point x="713" y="607" type="line"/>
			<point x="713" y="500" type="line"/>
		</contour>
	</outline>
</glyph>
<glyph name="dvNYA" format="2">
	<advance width="729"/>
	<unicode hex="091E"/>
	<outline>
		<contour>
			<point x="521" y="9" type="line"/>
			<point x="521" y="501" type="line"/>
			<point x="669" y="501" type="line"/>
			<point x="669" y="9" type="line"/>
		</contour>
		<contour>
			<point x="-20" y="500" type="line"/>
			<point x="-20" y="607" type="line"/>
			<point x="769" y="607" type="line"/>
			<point x="769" y="500" type="line"/>
		</contour>
		<contour>
			<point x="346" y="185" type="line"/>
			<point x="346" y="299" type="line"/>
			<point x="597" y="299" type="line"/>
			<point x="597" y="185" type="line"/>
		</contour>
		<contour>
			<point x="35" y="67" type="curve"/>
			<point x="35" y="192" type="line"/>
			<point x="40" y="192" type="line"/>
			<point x="87" y="178"/>
			<point x="140" y="171"/>
			<point x="193" y="171" type="curve" smooth="yes"/>
			<point x="267" y="171"/>
			<point x="280" y="183"/>
			<point x="280" y="237" type="curve" smooth="yes"/>
			<point x="280" y="298"/>
			<point x="250" y="302"/>
			<point x="207" y="302" type="curve" smooth="yes"/>
			<point x="169" y="302"/>
			<point x="139" y="296"/>
			<point x="118" y="290" type="curve"/>
			<point x="112" y="291" type="line"/>
			<point x="110" y="410" type="line"/>
			<point x="140" y="422"/>
			<point x="187" y="431"/>
			<point x="236" y="431" type="curve" smooth="yes"/>
			<point x="370" y="431"/>
			<point x="420" y="387"/>
			<point x="420" y="236" type="curve" smooth="yes"/>
			<point x="420" y="86"/>
			<point x="368" y="39"/>
			<point x="230" y="39" type="curve" smooth="yes"/>
			<point x="151" y="39"/>
			<point x="88" y="50"/>
		</contour>
	</outline>
</glyph>
<glyph name="dvDDHA" format="2">
	<advance width="562"/>
	<unicode hex="0922"/>
	<anchor x="226" y="-57" name="blwm.virama"/>
	<anchor x="493" y="607" name="abvm.bindu"/>
	<anchor x="316" y="-90" name="blwm.u"/>
	<anchor x="491" y="607" name="abvm.e"/>
	<outline>
		<contour>
			<point x="368" y="323" type="line"/>
			<point x="368" y="501" type="line"/>
			<point x="496" y="501" type="line"/>
			<point x="496" y="323" type="line"/>
		</contour>
		<contour>
			<point x="-30" y="500" type="line"/>
			<point x="-30" y="607" type="line"/>
			<point x="607" y="607" type="line"/>
			<point x="607" y="500" type="line"/>
		</contour>
		<contour>
			<point x="235" y="164" type="curve"/>
			<point x="232" y="166" type="line"/>
			<point x="232" y="262" type="line"/>
			<point x="274" y="272"/>
			<point x="332" y="277"/>
			<point x="380" y="277" type="curve" smooth="yes"/>
			<point x="500" y="277"/>
			<point x="537" y="245"/>
			<point x="537" y="142" type="curve"/>
			<point x="537" y="44"/>
			<point x="487" y="0"/>
			<point x="293" y="0" type="curve" smooth="yes"/>
			<point x="84" y="0"/>
			<point x="30" y="55"/>
			<point x="30" y="221" type="curve" smooth="yes"/>
			<point x="30" y="388"/>
			<point x="99" y="435"/>
			<point x="257" y="435" type="curve" smooth="yes"/>
			<point x="287" y="435"/>
			<point x="461" y="434"/>
			<point x="490" y="431" type="curve"/>
			<point x="490" y="323" type="line"/>
			<point x="297" y="323" type="line" smooth="yes"/>
			<point x="181" y="323"/>
			<point x="168" y="304"/>
			<point x="168" y="216" type="curve" smooth="yes"/>
			<point x="168" y="126"/>
			<point x="190" y="109"/>
			<point x="290" y="109" type="curve" smooth="yes"/>
			<point x="395" y="109"/>
			<point x="407" y="114"/>
			<point x="407" y="141" type="curve" smooth="yes"/>
			<point x="407" y="163"/>
			<point x="402" y="173"/>
			<point x="346" y="173" type="curve" smooth="yes"/>
			<point x="309" y="173"/>
			<point x="264" y="169"/>
		</contour>
	</outline>
</glyph>
<glyph name="dvPA" format="2">
	<advance width="575"/>
	<unicode hex="092A"/>
	<outline>
		<contour>
			<point x="246" y="99" type="curve" smooth="yes"/>
			<point x="100" y="99"/>
			<point x="50" y="154"/>
			<point x="50" y="314" type="curve" smooth="yes"/>
			<point x="50" y="513" type="line"/>
			<point x="198" y="514" type="line"/>
			<point x="198" y="305" type="line" smooth="yes"/>
			<point x="198" y="242"/>
			<point x="221" y="225"/>
			<point x="286" y="225" type="curve" smooth="yes"/>
			<point x="327" y="225"/>
			<point x="366" y="236"/>
			<point x="390" y="251" type="curve"/>
			<point x="394" y="129" type="line"/>
			<point x="387" y="125"/>
			<point x="375" y="118"/>
			<point x="367" y="115" type="curve"/>
			<point x="363" y="117" type="line"/>
			<point x="330" y="105"/>
			<point x="291" y="99"/>
		</contour>
		<contour>
			<point x="366" y="9" type="line"/>
			<point x="366" y="501" type="line"/>
			<point x="514" y="501" type="line"/>
			<point x="514" y="9" type="line"/>
		</contour>
		<contour>
			<point x="-50" y="500" type="line"/>
			<point x="-50" y="607" type="line"/>
			<point x="615" y="607" type="line"/>
			<point x="615" y="500" type="line"/>
		</contour>
	</outline>
</glyph>
<glyph name="dvMA" format="2">
	<advance width="621"/>
	<unicode hex="092E"/>
	<outline>
		<contour>
			<point x="412" y="9" type="line"/>
			<point x="412" y="501" type="line"/>
			<point x="561" y="501" type="line"/>
			<point x="561" y="9" type="line"/>
		</contour>
		<contour>
			<point x="-75" y="500" type="line"/>
			<point x="-75" y="607" type="line"/>
			<point x="661" y="607" type="line"/>
			<point x="661" y="500" type="line"/>
		</contour>
		<contour>
			<point x="157" y="174" type="line"/>
			<point x="157" y="286" type="line"/>
			<point x="530" y="287" type="line"/>
			<point x="530" y="175" type="line"/>
		</contour>
		<contour>
			<point x="107" y="280" type="curve"/>
			<point x="107" y="500" type="line"/>
			<point x="255" y="500" type="line"/>
			<point x="255" y="196" type="line" smooth="yes"/>
			<point x="255" y="109"/>
			<point x="237" y="94"/>
			<point x="145" y="94" type="curve" smooth="yes"/>
			<point x="48" y="94"/>
			<point x="26" y="113"/>
			<point x="26" y="187" type="curve" smooth="yes"/>
			<point x="26" y="262"/>
			<point x="47" y="280"/>
		</contour>
	</outline>
</glyph>
<glyph name="dvmII" format="2">
	<advance width="277"/>
	<unicode hex="0940"/>
	<outline>
		<contour>
			<point x="69" y="9" type="line"/>
			<point x="69" y="501" type="line"/>
			<point x="217" y="501" type="line"/>
			<point x="217" y="9" type="line"/>
		</contour>
		<contour>
			<point x="-70" y="652" type="curve"/>
			<point x="-70" y="650" type="line"/>
			<point x="-210" y="651" type="line"/>
			<point x="-212" y="655"/>
			<point x="-213" y="662"/>
			<point x="-213" y="667" type="curve" smooth="yes"/>
			<point x="-213" y="777"/>
			<point x="-163" y="829"/>
			<point x="-3" y="829" type="curve" smooth="yes"/>
			<point x="157" y="829"/>
			<point x="214" y="770"/>
			<point x="214" y="607" type="curve"/>
			<point x="81" y="607" type="line"/>
			<point x="81" y="620" type="line"/>
			<point x="81" y="702"/>
			<point x="70" y="721"/>
			<point x="5" y="721" type="curve" smooth="yes"/>
			<point x="-60" y="721"/>
			<point x="-71" y="701"/>
			<point x="-71" y="669" type="curve" smooth="yes"/>
			<point x="-71" y="665"/>
			<point x="-71" y="657"/>
		</contour>
		<contour>
			<point x="-40" y="500" type="line"/>
			<point x="-40" y="607" type="line"/>
			<point x="317" y="607" type="line"/>
			<point x="317" y="500" type="line"/>
		</contour>
	</outline>
</glyph>
<glyph name="dvmUU" format="2">
	<advance width="0"/>
	<unicode hex="0942"/>
	<anchor x="-118" y="-81" name="_blwm.u"/>
	<outline>
		<contour>
			<point x="178" y="-197" type="curve"/>
			<point x="178" y="-204" type="line"/>
			<point x="46" y="-204" type="line"/>
			<point x="15" y="-155"/>
			<point x="-34" y="-133"/>
			<point x="-107" y="-133" type="curve" smooth="yes"/>
			<point x="-158" y="-133"/>
			<point x="-174" y="-139"/>
			<point x="-174" y="-165" type="curve" smooth="yes"/>
			<point x="-174" y="-193"/>
			<point x="-158" y="-198"/>
			<point x="-129" y="-198" type="curve" smooth="yes"/>
			<point x="-110" y="-198"/>
			<point x="-85" y="-195"/>
			<point x="-71" y="-192" type="curve"/>
			<point x="-67" y="-195" type="line"/>
			<point x="-48" y="-279" type="line"/>
			<point x="-72" y="-288"/>
			<point x="-118" y="-296"/>
			<point x="-156" y="-296" type="curve" smooth="yes"/>
			<point x="-252" y="-296"/>
			<point x="-302" y="-271"/>
			<point x="-302" y="-159" type="curve" smooth="yes"/>
			<point x="-302" y="-65"/>
			<point x="-265" y="-25"/>
			<point x="-118" y="-25" type="curve" smooth="yes"/>
			<point x="51" y="-25"/>
			<point x="135" y="-91"/>
		</contour>
	</outline>
</glyph>
<glyph name="dvmAI" format="2">
	<advance width="0"/>
	<unicode hex="0948"/>
	<anchor x="-75" y="603" name="_abvm.e"/>
	<outline>
		<contour>
			<point x="-178" y="546" type="line"/>
			<point x="-310" y="598"/>
			<point x="-523" y="773"/>
			<point x="-575" y="825" type="curve" smooth="yes"/>
			<point x="-577" y="827"/>
			<point x="-575" y="830"/>
			<point x="-575" y="833" type="curve"/>
			<point x="-407" y="849" type="line"/>
			<point x="-173" y="607" type="line"/>
			<point x="-164" y="607" type="line"/>
			<point x="-212" y="664"/>
			<point x="-303" y="811"/>
			<point x="-335" y="876" type="curve" smooth="yes"/>
			<point x="-336" y="878"/>
			<point x="-335" y="879"/>
			<point x="-335" y="881" type="curve"/>
			<point x="-182" y="881" type="line"/>
			<point x="-75" y="603" type="line"/>
		</contour>
	</outline>
</glyph>
<glyph name="dvOm" format="2">
	<advance width="1026"/>
	<unicode hex="0950"/>
	<outline>
		<contour>
			<point x="235" y="5" type="curve" smooth="yes"/>
			<point x="394" y="9"/>
			<point x="469" y="67"/>
			<point x="469" y="183" type="curve" smooth="yes"/>
			<point x="469" y="251"/>
			<point x="432" y="305"/>
			<point x="336" y="310" type="curve"/>
			<point x="336" y="314" type="line"/>
			<point x="428" y="326"/>
			<point x="462" y="370"/>
			<point x="462" y="447" type="curve" smooth="yes"/>
			<point x="462" y="546"/>
			<point x="404" y="609"/>
			<point x="218" y="609" type="curve" smooth="yes"/>
			<point x="162" y="609"/>
			<point x="106" y="603"/>
			<point x="49" y="589" type="curve"/>
			<point x="49" y="466" type="line"/>
			<point x="53" y="465" type="line"/>
			<point x="95" y="477"/>
			<point x="139" y="484"/>
			<point x="199" y="484" type="curve" smooth="yes"/>
			<point x="292" y="484"/>
			<point x="324" y="466"/>
			<point x="324" y="430" type="curve" smooth="yes"/>
			<point x="324" y="389"/>
			<point x="298" y="375"/>
			<point x="204" y="375" type="curve" smooth="yes"/>
			<point x="139" y="375" type="line"/>
			<point x="139" y="249" type="line"/>
			<point x="217" y="249" type="line" smooth="yes"/>
			<point x="299" y="249"/>
			<point x="324" y="235"/>
			<point x="324" y="193" type="curve" smooth="yes"/>
			<point x="324" y="147"/>
			<point x="296" y="130"/>
			<point x="205" y="130" type="curve" smooth="yes"/>
			<point x="135" y="130"/>
			<point x="77" y="138"/>
			<point x="26" y="155" type="curve"/>
			<point x="20" y="155" type="line"/>
			<point x="20" y="34" type="line"/>
			<point x="73" y="16"/>
			<point x="146" y="3"/>
		</contour>
		<contour>
			<point x="666" y="137" type="curve"/>
			<point x="662" y="134" type="line"/>
			<point x="662" y="12" type="line"/>
			<point x="690" y="5"/>
			<point x="727" y="0"/>
			<point x="765" y="0" type="curve" smooth="yes"/>
			<point x="934" y="0"/>
			<point x="993" y="74"/>
			<point x="993" y="307" type="curve" smooth="yes"/>
			<point x="993" y="530"/>
			<point x="929" y="614"/>
			<point x="755" y="614" type="curve" smooth="yes"/>
			<point x="578" y="614"/>
			<point x="527" y="531"/>
			<point x="527" y="317" type="curve" smooth="yes"/>
			<point x="527" y="296" type="line"/>
			<point x="527" y="283"/>
			<point x="513" y="283"/>
			<point x="470" y="283" type="curve"/>
			<point x="356" y="283" type="line"/>
			<point x="356" y="168" type="line"/>
			<point x="586" y="168" type="line"/>
			<point x="661" y="168"/>
			<point x="665" y="180"/>
			<point x="665" y="288" type="curve"/>
			<point x="665" y="307" type="line"/>
			<point x="664" y="449"/>
			<point x="679" y="488"/>
			<point x="756" y="488" type="curve" smooth="yes"/>
			<point x="834" y="488"/>
			<point x="846" y="450"/>
			<point x="846" y="307" type="curve" smooth="yes"/>
			<point x="846" y="182"/>
			<point x="836" y="125"/>
			<point x="745" y="125" type="curve" smooth="yes"/>
			<point x="717" y="125"/>
			<point x="688" y="130"/>
		</contour>
		<contour>
			<point x="561" y="913" type="curve"/>
			<point x="563" y="891"/>
			<point x="564" y="876"/>
			<point x="564" y="860" type="curve" smooth="yes"/>
			<point x="564" y="844"/>
			<point x="563" y="828"/>
			<point x="561" y="807" type="curve"/>
			<point x="535" y="802"/>
			<point x="510" y="799"/>
			<point x="485" y="799" type="curve" smooth="yes"/>
			<point x="461" y="799"/>
			<point x="437" y="802"/>
			<point x="412" y="807" type="curve"/>
			<point x="409" y="827"/>
			<point x="408" y="843"/>
			<point x="408" y="859" type="curve" smooth="yes"/>
			<point x="408" y="874"/>
			<point x="409" y="891"/>
			<point x="412" y="913" type="curve"/>
			<point x="437" y="918"/>
			<point x="462" y="920"/>
			<point x="487" y="920" type="curve" smooth="yes"/>
			<point x="511" y="920"/>
			<point x="536" y="918"/>
		</contour>
		<contour>
			<point x="587" y="787" type="curve"/>
			<point x="716" y="787" type="line"/>
			<point x="716" y="654"/>
			<point x="663" y="624"/>
			<point x="487" y="624" type="curve" smooth="yes"/>
			<point x="300" y="624"/>
			<point x="254" y="654"/>
			<point x="254" y="787" type="curve"/>
			<point x="384" y="787" type="line"/>
			<point x="384" y="739"/>
			<point x="412" y="731"/>
			<point x="487" y="730" type="curve" smooth="yes"/>
			<point x="562" y="729"/>
			<point x="587" y="739"/>
		</contour>
	</outline>
</glyph>
<glyph name="quotedblright" format="2">
	<advance width="444"/>
	<unicode hex="201D"/>
	<note>
		quotedblright
	</note>
	<outline>
		<contour>
			<point x="77" y="558" type="curve"/>
			<point x="76" y="557" type="line"/>
			<point x="76" y="503" type="line"/>
			<point x="84" y="502"/>
			<point x="90" y="501"/>
			<point x="97" y="501" type="curve" smooth="yes"/>
			<point x="170" y="501"/>
			<point x="212" y="532"/>
			<point x="212" y="630" type="curve" smooth="yes"/>
			<point x="212" y="705"/>
			<point x="184" y="746"/>
			<point x="114" y="746" type="curve" smooth="yes"/>
			<point x="46" y="746"/>
			<point x="23" y="719"/>
			<point x="23" y="669" type="curve" smooth="yes"/>
			<point x="23" y="621"/>
			<point x="50" y="595"/>
			<point x="101" y="595" type="curve" smooth="yes"/>
			<point x="123" y="595"/>
			<point x="140" y="599"/>
			<point x="150" y="605" type="curve"/>
			<point x="151" y="604" type="line"/>
			<point x="151" y="569"/>
			<point x="131" y="557"/>
			<point x="91" y="557" type="curve" smooth="yes"/>
			<point x="86" y="557"/>
			<point x="83" y="557"/>
		</contour>
		<contour>
			<point x="286" y="558" type="curve"/>
			<point x="285" y="557" type="line"/>
			<point x="285" y="503" type="line"/>
			<point x="293" y="502"/>
			<point x="298" y="501"/>
			<point x="306" y="501" type="curve" smooth="yes"/>
			<point x="379" y="501"/>
			<point x="421" y="532"/>
			<point x="421" y="630" type="curve" smooth="yes"/>
			<point x="421" y="705"/>
			<point x="393" y="746"/>
			<point x="323" y="746" type="curve" smooth="yes"/>
			<point x="254" y="746"/>
			<point x="232" y="719"/>
			<point x="232" y="669" type="curve" smooth="yes"/>
			<point x="232" y="621"/>
			<point x="259" y="595"/>
			<point x="310" y="595" type="curve" smooth="yes"/>
			<point x="332" y="595"/>
			<point x="348" y="599"/>
			<point x="359" y="605" type="curve"/>
			<point x="360" y="604" type="line"/>
			<point x="360" y="569"/>
			<point x="340" y="557"/>
			<point x="299" y="557" type="curve" smooth="yes"/>
			<point x="295" y="557"/>
			<point x="292" y="557"/>
		</contour>
	</outline>
</glyph>
<glyph name="quotedblbase" format="2">
	<advance width="444"/>
	<unicode hex="201E"/>
	<note>
		quotedblbase
	</note>
	<outline>
		<contour>
			<point x="77" y="-92" type="curve"/>
			<point x="76" y="-93" type="line"/>
			<point x="76" y="-147" type="line"/>
			<point x="84" y="-148"/>
			<point x="90" y="-149"/>
			<point x="97" y="-149" type="curve" smooth="yes"/>
			<point x="170" y="-149"/>
			<point x="212" y="-118"/>
			<point x="212" y="-20" type="curve" smooth="yes"/>
			<point x="212" y="55"/>
			<point x="184" y="96"/>
			<point x="114" y="96" type="curve" smooth="yes"/>
			<point x="46" y="96"/>
			<point x="23" y="69"/>
			<point x="23" y="19" type="curve" smooth="yes"/>
			<point x="23" y="-29"/>
			<point x="50" y="-55"/>
			<point x="101" y="-55" type="curve" smooth="yes"/>
			<point x="123" y="-55"/>
			<point x="140" y="-51"/>
			<point x="150" y="-45" type="curve"/>
			<point x="151" y="-46" type="line"/>
			<point x="151" y="-81"/>
			<point x="131" y="-93"/>
			<point x="91" y="-93" type="curve" smooth="yes"/>
			<point x="86" y="-93"/>
			<point x="83" y="-93"/>
		</contour>
		<contour>
			<point x="286" y="-92" type="curve"/>
			<point x="285" y="-93" type="line"/>
			<point x="285" y="-147" type="line"/>
			<point x="293" y="-148"/>
			<point x="298" y="-149"/>
			<point x="306" y="-149" type="curve" smooth="yes"/>
			<point x="379" y="-149"/>
			<point x="421" y="-118"/>
			<point x="421" y="-20" type="curve" smooth="yes"/>
			<point x="421" y="55"/>
			<point x="393" y="96"/>
			<point x="323" y="96" type="curve" smooth="yes"/>
			<point x="254" y="96"/>
			<point x="232" y="69"/>
			<point x="232" y="19" type="curve" smooth="yes"/>
			<point x="232" y="-29"/>
			<point x="259" y="-55"/>
			<point x="310" y="-55" type="curve" smooth="yes"/>
			<point x="332" y="-55"/>
			<point x="348" y="-51"/>
			<point x="359" y="-45" type="curve"/>
			<point x="360" y="-46" type="line"/>
			<point x="360" y="-81"/>
			<point x="340" y="-93"/>
			<point x="299" y="-93" type="curve" smooth="yes"/>
			<point x="295" y="-93"/>
			<point x="292" y="-93"/>
		</contour>
	</outline>
</glyph>
<glyph name="ellipsis" format="2">
	<advance width="848"/>
	<unicode hex="2026"/>
	<note>
		ellipsis
	</note>
	<outline>
		<contour>
			<point x="523" y="151" type="curve"/>
			<point x="490" y="157"/>
			<point x="457" y="159"/>
			<point x="425" y="159" type="curve" smooth="yes"/>
			<point x="393" y="159"/>
			<point x="359" y="157"/>
			<point x="327" y="151" type="curve"/>
			<point x="322" y="121"/>
			<point x="321" y="99"/>
			<point x="321" y="79" type="curve" smooth="yes"/>
			<point x="321" y="57"/>
			<point x="322" y="37"/>
			<point x="327" y="11" type="curve"/>
			<point x="359" y="4"/>
			<point x="392" y="0"/>
			<point x="423" y="0" type="curve" smooth="yes"/>
			<point x="456" y="0"/>
			<point x="489" y="4"/>
			<point x="523" y="11" type="curve"/>
			<point x="526" y="38"/>
			<point x="527" y="60"/>
			<point x="527" y="80" type="curve" smooth="yes"/>
			<point x="527" y="102"/>
			<point x="526" y="121"/>
		</contour>
		<contour>
			<point x="237" y="151" type="curve"/>
			<point x="203" y="157"/>
			<point x="171" y="159"/>
			<point x="139" y="159" type="curve" smooth="yes"/>
			<point x="107" y="159"/>
			<point x="73" y="157"/>
			<point x="41" y="151" type="curve"/>
			<point x="36" y="121"/>
			<point x="35" y="99"/>
			<point x="35" y="79" type="curve" smooth="yes"/>
			<point x="35" y="57"/>
			<point x="36" y="37"/>
			<point x="41" y="11" type="curve"/>
			<point x="73" y="4"/>
			<point x="105" y="0"/>
			<point x="136" y="0" type="curve" smooth="yes"/>
			<point x="170" y="0"/>
			<point x="202" y="4"/>
			<point x="237" y="11" type="curve"/>
			<point x="239" y="38"/>
			<point x="240" y="60"/>
			<point x="240" y="80" type="curve" smooth="yes"/>
			<point x="240" y="102"/>
			<point x="239" y="121"/>
		</contour>
		<contour>
			<point x="810" y="151" type="curve"/>
			<point x="776" y="157"/>
			<point x="744" y="159"/>
			<point x="712" y="159" type="curve" smooth="yes"/>
			<point x="679" y="159"/>
			<point x="646" y="157"/>
			<point x="614" y="151" type="curve"/>
			<point x="609" y="121"/>
			<point x="608" y="99"/>
			<point x="608" y="79" type="curve" smooth="yes"/>
			<point x="608" y="57"/>
			<point x="609" y="37"/>
			<point x="614" y="11" type="curve"/>
			<point x="646" y="4"/>
			<point x="678" y="0"/>
			<point x="709" y="0" type="curve" smooth="yes"/>
			<point x="743" y="0"/>
			<point x="775" y="4"/>
			<point x="810" y="11" type="curve"/>
			<point x="812" y="38"/>
			<point x="813" y="60"/>
			<point x="813" y="80" type="curve" smooth="yes"/>
			<point x="813" y="102"/>
			<point x="812" y="121"/>
		</contour>
	</outline>
</glyph>
<glyph name="guilsinglright" format="2">
	<advance width="255"/>
	<unicode hex="203A"/>
	<note>
		guilsinglright
	</note>
	<outline>
		<contour>
			<point x="265" y="237" type="line"/>
			<point x="136" y="433" type="line"/>
			<point x="0" y="433" type="line"/>
			<point x="131" y="237" type="line"/>
			<point x="0" y="43" type="line"/>
			<point x="136" y="43" type="line"/>
		</contour>
	</outline>
</glyph>
<glyph name="uni2126" format="2">
	<advance width="767"/>
	<unicode hex="2126"/>
	<outline>
		<contour>
			<point x="445" y="134" type="curve"/>
			<point x="445" y="0" type="line"/>
			<point x="715" y="0" type="line"/>
			<point x="715" y="130" type="line"/>
			<point x="633" y="130" type="line"/>
			<point x="678" y="171"/>
			<point x="697" y="249"/>
			<point x="697" y="326" type="curve" smooth="yes"/>
			<point x="697" y="567"/>
			<point x="629" y="651"/>
			<point x="397" y="651" type="curve" smooth="yes"/>
			<point x="165" y="651"/>
			<point x="96" y="567"/>
			<point x="96" y="326" type="curve" smooth="yes"/>
			<point x="96" y="249"/>
			<point x="108" y="176"/>
			<point x="160" y="130" type="curve"/>
			<point x="80" y="130" type="line"/>
			<point x="80" y="0" type="line"/>
			<point x="350" y="0" type="line"/>
			<point x="350" y="134" type="line"/>
			<point x="272" y="147"/>
			<point x="256" y="205"/>
			<point x="256" y="326" type="curve" smooth="yes"/>
			<point x="256" y="469"/>
			<point x="280" y="511"/>
			<point x="397" y="511" type="curve" smooth="yes"/>
			<point x="515" y="511"/>
			<point x="537" y="469"/>
			<point x="537" y="326" type="curve" smooth="yes"/>
			<point x="537" y="205"/>
			<point x="522" y="147"/>
		</contour>
	</outline>
</glyph>
<glyph name="dottedcircle" format="2">
	<advance width="660"/>
	<unicode hex="25CC"/>
	<outline>
		<contour>
			<point x="139" y="522" type="curve" smooth="yes"/>
			<point x="139" y="496"/>
			<point x="157" y="477"/>
			<point x="183" y="477" type="curve" smooth="yes"/>
			<point x="209" y="477"/>
			<point x="227" y="496"/>
			<point x="227" y="522" type="curve" smooth="yes"/>
			<point x="227" y="547"/>
			<point x="209" y="566"/>
			<point x="183" y="566" type="curve" smooth="yes"/>
			<point x="157" y="566"/>
			<point x="139" y="547"/>
		</contour>
		<contour>
			<point x="57" y="412" type="curve" smooth="yes"/>
			<point x="57" y="387"/>
			<point x="77" y="368"/>
			<point x="103" y="368" type="curve" smooth="yes"/>
			<point x="127" y="368"/>
			<point x="147" y="387"/>
			<point x="147" y="412" type="curve" smooth="yes"/>
			<point x="147" y="437"/>
			<point x="127" y="456"/>
			<point x="103" y="456" type="curve" smooth="yes"/>
			<point x="77" y="456"/>
			<point x="57" y="437"/>
		</contour>
		<contour>
			<point x="44" y="286" type="curve" smooth="yes"/>
			<point x="44" y="261"/>
			<point x="63" y="243"/>
			<point x="88" y="243" type="curve" smooth="yes"/>
			<point x="114" y="243"/>
			<point x="132" y="261"/>
			<point x="132" y="286" type="curve" smooth="yes"/>
			<point x="132" y="312"/>
			<point x="114" y="331"/>
			<point x="88" y="331" type="curve" smooth="yes"/>
			<point x="63" y="331"/>
			<point x="44" y="312"/>
		</contour>
		<contour>
			<point x="96" y="170" type="curve" smooth="yes"/>
			<point x="96" y="144"/>
			<point x="114" y="126"/>
			<point x="140" y="126" type="curve" smooth="yes"/>
			<point x="165" y="126"/>
			<point x="184" y="144"/>
			<point x="184" y="170" type="curve" smooth="yes"/>
			<point x="184" y="195"/>
			<point x="165" y="214"/>
			<point x="140" y="214" type="curve" smooth="yes"/>
			<point x="114" y="214"/>
			<point x="96" y="195"/>
		</contour>
		<contour>
			<point x="197" y="95" type="curve" smooth="yes"/>
			<point x="197" y="69"/>
			<point x="216" y="49"/>
			<point x="242" y="49" type="curve" smooth="yes"/>
			<point x="267" y="49"/>
			<point x="286" y="69"/>
			<point x="286" y="95" type="curve" smooth="yes"/>
			<point x="286" y="119"/>
			<point x="267" y="139"/>
			<point x="242" y="139" type="curve" smooth="yes"/>
			<point x="216" y="139"/>
			<point x="197" y="119"/>
		</contour>
		<contour>
			<point x="324" y="79" type="curve" smooth="yes"/>
			<point x="324" y="53"/>
			<point x="342" y="35"/>
			<point x="368" y="35" type="curve" smooth="yes"/>
			<point x="394" y="35"/>
			<point x="413" y="53"/>
			<point x="413" y="79" type="curve" smooth="yes"/>
			<point x="413" y="105"/>
			<point x="394" y="123"/>
			<point x="368" y="123" type="curve" smooth="yes"/>
			<point x="342" y="123"/>
			<point x="324" y="105"/>
		</contour>
		<contour>
			<point x="445" y="132" type="curve" smooth="yes"/>
			<point x="445" y="106"/>
			<point x="464" y="88"/>
			<point x="489" y="88" type="curve" smooth="yes"/>
			<point x="514" y="88"/>
			<point x="534" y="106"/>
			<point x="534" y="132" type="curve" smooth="yes"/>
			<point x="534" y="157"/>
			<point x="514" y="176"/>
			<point x="489" y="176" type="curve" smooth="yes"/>
			<point x="464" y="176"/>
			<point x="445" y="157"/>
		</contour>
		<contour>
			<point x="518" y="230" type="curve" smooth="yes"/>
			<point x="518" y="205"/>
			<point x="537" y="186"/>
			<point x="563" y="186" type="curve" smooth="yes"/>
			<point x="587" y="186"/>
			<point x="606" y="205"/>
			<point x="606" y="230" type="curve" smooth="yes"/>
			<point x="606" y="256"/>
			<point x="587" y="275"/>
			<point x="563" y="275" type="curve" smooth="yes"/>
			<point x="537" y="275"/>
			<point x="518" y="256"/>
		</contour>
		<contour>
			<point x="528" y="364" type="curve" smooth="yes"/>
			<point x="528" y="338"/>
			<point x="546" y="320"/>
			<point x="572" y="320" type="curve" smooth="yes"/>
			<point x="597" y="320"/>
			<point x="616" y="338"/>
			<point x="616" y="364" type="curve" smooth="yes"/>
			<point x="616" y="390"/>
			<point x="597" y="408"/>
			<point x="572" y="408" type="curve" smooth="yes"/>
			<point x="546" y="408"/>
			<point x="528" y="390"/>
		</contour>
		<contour>
			<point x="478" y="482" type="curve" smooth="yes"/>
			<point x="478" y="457"/>
			<point x="497" y="438"/>
			<point x="522" y="438" type="curve" smooth="yes"/>
			<point x="548" y="438"/>
			<point x="566" y="457"/>
			<point x="566" y="482" type="curve" smooth="yes"/>
			<point x="566" y="508"/>
			<point x="548" y="527"/>
			<point x="522" y="527" type="curve" smooth="yes"/>
			<point x="497" y="527"/>
			<point x="478" y="508"/>
		</contour>
		<contour>
			<point x="383" y="550" type="curve" smooth="yes"/>
			<point x="383" y="526"/>
			<point x="402" y="506"/>
			<point x="428" y="506" type="curve" smooth="yes"/>
			<point x="453" y="506"/>
			<point x="471" y="526"/>
			<point x="471" y="550" type="curve" smooth="yes"/>
			<point x="471" y="576"/>
			<point x="453" y="595"/>
			<point x="428" y="595" type="curve" smooth="yes"/>
			<point x="402" y="595"/>
			<point x="383" y="576"/>
		</contour>
		<contour>
			<point x="257" y="565" type="curve" smooth="yes"/>
			<point x="257" y="539"/>
			<point x="275" y="521"/>
			<point x="301" y="521" type="curve" smooth="yes"/>
			<point x="327" y="521"/>
			<point x="345" y="539"/>
			<point x="345" y="565" type="curve" smooth="yes"/>
			<point x="345" y="591"/>
			<point x="327" y="609"/>
			<point x="301" y="609" type="curve" smooth="yes"/>
			<point x="275" y="609"/>
			<point x="257" y="591"/>
		</contour>
	</outline>
</glyph>
<glyph name="dvBH_VA" format="2">
	<advance width="1003"/>
	<outline>
		<contour>
			<point x="139" y="168" type="line"/>
			<point x="139" y="280" type="line"/>
			<point x="512" y="280" type="line"/>
			<point x="512" y="168" type="line"/>
		</contour>
		<contour>
			<point x="53" y="500" type="curve" smooth="yes"/>
			<point x="-70" y="500" type="line"/>
			<point x="-70" y="607" type="line"/>
			<point x="90" y="607" type="line" smooth="yes"/>
			<point x="215" y="607"/>
			<point x="252" y="558"/>
			<point x="252" y="422" type="curve" smooth="yes"/>
			<point x="252" y="196" type="line" smooth="yes"/>
			<point x="252" y="109"/>
			<point x="235" y="94"/>
			<point x="143" y="94" type="curve" smooth="yes"/>
			<point x="46" y="94"/>
			<point x="23" y="113"/>
			<point x="23" y="187" type="curve" smooth="yes"/>
			<point x="23" y="262"/>
			<point x="44" y="280"/>
			<point x="104" y="280" type="curve"/>
			<point x="104" y="433" type="line" smooth="yes"/>
			<point x="104" y="482"/>
			<point x="96" y="500"/>
		</contour>
		<contour>
			<point x="605" y="439" type="curve" smooth="yes"/>
			<point x="655" y="439"/>
			<point x="698" y="433"/>
			<point x="737" y="423" type="curve"/>
			<point x="737" y="308" type="line"/>
			<point x="733" y="307" type="line"/>
			<point x="710" y="312"/>
			<point x="681" y="315"/>
			<point x="650" y="315" type="curve" smooth="yes"/>
			<point x="587" y="315"/>
			<point x="567" y="303"/>
			<point x="567" y="246" type="curve" smooth="yes"/>
			<point x="567" y="188"/>
			<point x="597" y="176"/>
			<point x="678" y="176" type="curve" smooth="yes"/>
			<point x="732" y="176"/>
			<point x="769" y="184"/>
			<point x="803" y="203" type="curve"/>
			<point x="830" y="96" type="line"/>
			<point x="796" y="83" type="line"/>
			<point x="792" y="85" type="line"/>
			<point x="755" y="67"/>
			<point x="694" y="56"/>
			<point x="639" y="56" type="curve" smooth="yes"/>
			<point x="477" y="56"/>
			<point x="417" y="111"/>
			<point x="417" y="251" type="curve" smooth="yes"/>
			<point x="417" y="385"/>
			<point x="477" y="439"/>
		</contour>
		<contour>
			<point x="795" y="9" type="line"/>
			<point x="795" y="501" type="line"/>
			<point x="943" y="501" type="line"/>
			<point x="943" y="9" type="line"/>
		</contour>
		<contour>
			<point x="352" y="500" type="line"/>
			<point x="352" y="607" type="line"/>
			<point x="1043" y="607" type="line"/>
			<point x="1043" y="500" type="line"/>
		</contour>
	</outline>
</glyph>
<glyph name="dvDA_mvR" format="2">
	<advance width="531"/>
	<outline>
		<contour>
			<point x="352" y="9" type="line"/>
			<point x="472" y="9" type="line"/>
			<point x="472" y="250" type="line"/>
			<point x="360" y="250" type="line"/>
			<point x="360" y="216" type="line" smooth="yes"/>
			<point x="360" y="189"/>
			<point x="339" y="177"/>
			<point x="264" y="177" type="curve" smooth="yes"/>
			<point x="182" y="177"/>
			<point x="162" y="186"/>
			<point x="162" y="246" type="curve" smooth="yes"/>
			<point x="162" y="306"/>
			<point x="181" y="321"/>
			<point x="253" y="321" type="curve" smooth="yes"/>
			<point x="451" y="321" type="line"/>
			<point x="451" y="431" type="line"/>
			<point x="421" y="434"/>
			<point x="313" y="435"/>
			<point x="236" y="435" type="curve" smooth="yes"/>
			<point x="87" y="435"/>
			<point x="26" y="388"/>
			<point x="26" y="253" type="curve" smooth="yes"/>
			<point x="26" y="116"/>
			<point x="93" y="66"/>
			<point x="216" y="66" type="curve" smooth="yes"/>
			<point x="265" y="66"/>
			<point x="316" y="74"/>
			<point x="349" y="89" type="curve"/>
			<point x="352" y="87" type="line"/>
		</contour>
		<contour>
			<point x="472" y="-219" type="curve"/>
			<point x="472" y="-125" type="line"/>
			<point x="469" y="-123" type="line"/>
			<point x="442" y="-129"/>
			<point x="412" y="-132"/>
			<point x="384" y="-132" type="curve" smooth="yes"/>
			<point x="331" y="-132"/>
			<point x="311" y="-126"/>
			<point x="311" y="-95" type="curve" smooth="yes"/>
			<point x="311" y="-65"/>
			<point x="329" y="-58"/>
			<point x="365" y="-58" type="curve" smooth="yes"/>
			<point x="472" y="-58" type="line"/>
			<point x="472" y="38" type="line"/>
			<point x="339" y="38" type="line"/>
			<point x="248" y="38"/>
			<point x="192" y="7"/>
			<point x="192" y="-94" type="curve" smooth="yes"/>
			<point x="192" y="-195"/>
			<point x="255" y="-229"/>
			<point x="371" y="-229" type="curve" smooth="yes"/>
			<point x="401" y="-229"/>
			<point x="444" y="-226"/>
		</contour>
		<contour>
			<point x="-60" y="500" type="line"/>
			<point x="571" y="500" type="line"/>
			<point x="571" y="607" type="line"/>
			<point x="-60" y="607" type="line"/>
		</contour>
		<contour>
			<point x="339" y="321" type="line"/>
			<point x="467" y="321" type="line"/>
			<point x="467" y="501" type="line"/>
			<point x="339" y="501" type="line"/>
		</contour>
	</outline>
</glyph>
<glyph name="dvDD_VA" format="2">
	<advance width="537"/>
	<anchor x="412" y="-270" name="blwm.u"/>
	<outline>
		<contour>
			<point x="386" y="-180" type="line"/>
			<point x="487" y="-180" type="line"/>
			<point x="487" y="138" type="line"/>
			<point x="366" y="138" type="line"/>
		</contour>
		<contour>
			<point x="-30" y="500" type="line"/>
			<point x="585" y="500" type="line"/>
			<point x="585" y="607" type="line"/>
			<point x="-30" y="607" type="line"/>
		</contour>
		<contour>
			<point x="367" y="364" type="line"/>
			<point x="485" y="364" type="line"/>
			<point x="485" y="511" type="line"/>
			<point x="367" y="511" type="line"/>
		</contour>
		<contour>
			<point x="31" y="-13" type="curve" smooth="yes"/>
			<point x="31" y="-91"/>
			<point x="84" y="-145"/>
			<point x="225" y="-145" type="curve" smooth="yes"/>
			<point x="277" y="-145"/>
			<point x="327" y="-138"/>
			<point x="363" y="-126" type="curve"/>
			<point x="367" y="-129" type="line"/>
			<point x="399" y="-116" type="line"/>
			<point x="373" y="-22" type="line"/>
			<point x="340" y="-34"/>
			<point x="303" y="-40"/>
			<point x="257" y="-40" type="curve" smooth="yes"/>
			<point x="174" y="-40"/>
			<point x="159" y="-25"/>
			<point x="159" y="8" type="curve" smooth="yes"/>
			<point x="159" y="42"/>
			<point x="177" y="55"/>
			<point x="223" y="55" type="curve"/>
			<point x="243" y="55" type="line" smooth="yes"/>
			<point x="427" y="55"/>
			<point x="496" y="78"/>
			<point x="496" y="191" type="curve" smooth="yes"/>
			<point x="496" y="280"/>
			<point x="458" y="312"/>
			<point x="290" y="312" type="curve" smooth="yes"/>
			<point x="224" y="312" type="line" smooth="yes"/>
			<point x="190" y="312"/>
			<point x="180" y="317"/>
			<point x="180" y="337" type="curve" smooth="yes"/>
			<point x="180" y="354"/>
			<point x="190" y="360"/>
			<point x="224" y="360" type="curve" smooth="yes"/>
			<point x="485" y="360" type="line"/>
			<point x="485" y="457" type="line"/>
			<point x="215" y="457" type="line" smooth="yes"/>
			<point x="98" y="457"/>
			<point x="48" y="428"/>
			<point x="48" y="339" type="curve" smooth="yes"/>
			<point x="48" y="247"/>
			<point x="99" y="222"/>
			<point x="216" y="222" type="curve" smooth="yes"/>
			<point x="272" y="222" type="line" smooth="yes"/>
			<point x="355" y="222"/>
			<point x="364" y="217"/>
			<point x="364" y="198" type="curve" smooth="yes"/>
			<point x="364" y="176"/>
			<point x="344" y="168"/>
			<point x="239" y="168" type="curve" smooth="yes"/>
			<point x="155" y="168"/>
			<point x="76" y="177"/>
			<point x="34" y="194" type="curve"/>
			<point x="29" y="191" type="line"/>
			<point x="29" y="100" type="line"/>
			<point x="44" y="95"/>
			<point x="80" y="90"/>
			<point x="97" y="88" type="curve"/>
			<point x="97" y="86" type="line"/>
			<point x="62" y="76"/>
			<point x="31" y="42"/>
		</contour>
	</outline>
</glyph>
<glyph name="dvDH_YA" format="2">
	<advance width="1082"/>
	<outline>
		<contour>
			<point x="-65" y="500" type="line"/>
			<point x="-65" y="607" type="line"/>
			<point x="274" y="607" type="line"/>
			<point x="274" y="500" type="line"/>
		</contour>
		<contour>
			<point x="39" y="436" type="curve" smooth="yes"/>
			<point x="39" y="465"/>
			<point x="50" y="484"/>
			<point x="69" y="497" type="curve"/>
			<point x="69" y="501" type="line"/>
			<point x="260" y="606" type="line"/>
			<point x="260" y="500" type="line"/>
			<point x="197" y="500"/>
			<point x="185" y="483"/>
			<point x="185" y="447" type="curve" smooth="yes"/>
			<point x="185" y="411"/>
			<point x="207" y="395"/>
			<point x="290" y="395" type="curve" smooth="yes"/>
			<point x="319" y="395" type="line"/>
			<point x="319" y="280" type="line"/>
			<point x="290" y="280" type="line" smooth="yes"/>
			<point x="215" y="280"/>
			<point x="193" y="268"/>
			<point x="193" y="228" type="curve" smooth="yes"/>
			<point x="193" y="190"/>
			<point x="216" y="177"/>
			<point x="297" y="177" type="curve" smooth="yes"/>
			<point x="376" y="177"/>
			<point x="435" y="192"/>
			<point x="500" y="231" type="curve"/>
			<point x="548" y="118" type="line"/>
			<point x="476" y="77"/>
			<point x="401" y="54"/>
			<point x="276" y="54" type="curve" smooth="yes"/>
			<point x="109" y="54"/>
			<point x="48" y="105"/>
			<point x="48" y="216" type="curve" smooth="yes"/>
			<point x="48" y="281"/>
			<point x="89" y="330"/>
			<point x="163" y="334" type="curve"/>
			<point x="163" y="338" type="line"/>
			<point x="85" y="341"/>
			<point x="39" y="378"/>
		</contour>
		<contour>
			<point x="874" y="9" type="line"/>
			<point x="874" y="501" type="line"/>
			<point x="1022" y="501" type="line"/>
			<point x="1022" y="9" type="line"/>
		</contour>
		<contour>
			<point x="379" y="500" type="line"/>
			<point x="379" y="607" type="line"/>
			<point x="1122" y="607" type="line"/>
			<point x="1122" y="500" type="line"/>
		</contour>
		<contour>
			<point x="725" y="520" type="line"/>
			<point x="725" y="422" type="line" smooth="yes"/>
			<point x="725" y="320"/>
			<point x="682" y="277"/>
			<point x="561" y="270" type="curve"/>
			<point x="562" y="227"/>
			<point x="608" y="200"/>
			<point x="718" y="200" type="curve" smooth="yes"/>
			<point x="806" y="200"/>
			<point x="869" y="216"/>
			<point x="923" y="257" type="curve"/>
			<point x="954" y="146" type="line"/>
			<point x="929" y="125"/>
			<point x="907" y="110"/>
			<point x="874" y="98" type="curve"/>
			<point x="870" y="100" type="line"/>
			<point x="823" y="84"/>
			<point x="771" y="76"/>
			<point x="704" y="76" type="curve" smooth="yes"/>
			<point x="523" y="76"/>
			<point x="427" y="156"/>
			<point x="427" y="312" type="curve" smooth="yes"/>
			<point x="427" y="367" type="line"/>
			<point x="475" y="367" type="line" smooth="yes"/>
			<point x="568" y="367"/>
			<point x="583" y="379"/>
			<point x="583" y="464" type="curve" smooth="yes"/>
			<point x="583" y="520" type="line"/>
		</contour>
	</outline>
</glyph>
<glyph name="dvD_NA" format="2">
	<advance width="556"/>
	<anchor x="445" y="-94" name="blwm.u"/>
	<outline>
		<contour>
			<point x="185" y="79" type="curve"/>
			<point x="185" y="97" type="line"/>
			<point x="370" y="100" type="line"/>
			<point x="196" y="-31" type="line"/>
			<point x="220" y="-69"/>
			<point x="206" y="-83"/>
			<point x="169" y="-111" type="curve" smooth="yes"/>
			<point x="129" y="-141"/>
			<point x="108" y="-144"/>
			<point x="72" y="-96" type="curve" smooth="yes"/>
			<point x="38" y="-51"/>
			<point x="38" y="-26"/>
			<point x="73" y="-2" type="curve" smooth="yes"/>
			<point x="128" y="36"/>
			<point x="143" y="47"/>
		</contour>
		<contour>
			<point x="364" y="321" type="line"/>
			<point x="364" y="501" type="line"/>
			<point x="496" y="501" type="line"/>
			<point x="496" y="321" type="line"/>
		</contour>
		<contour>
			<point x="-55" y="500" type="line"/>
			<point x="-55" y="607" type="line"/>
			<point x="596" y="607" type="line"/>
			<point x="596" y="500" type="line"/>
		</contour>
		<contour>
			<point x="31" y="253" type="curve" smooth="yes"/>
			<point x="31" y="388"/>
			<point x="92" y="435"/>
			<point x="251" y="435" type="curve" smooth="yes"/>
			<point x="328" y="435"/>
			<point x="446" y="434"/>
			<point x="476" y="431" type="curve"/>
			<point x="476" y="321" type="line"/>
			<point x="258" y="321" type="line" smooth="yes"/>
			<point x="186" y="321"/>
			<point x="167" y="306"/>
			<point x="167" y="246" type="curve" smooth="yes"/>
			<point x="167" y="186"/>
			<point x="187" y="177"/>
			<point x="279" y="177" type="curve" smooth="yes"/>
			<point x="354" y="177"/>
			<point x="385" y="189"/>
			<point x="385" y="216" type="curve" smooth="yes"/>
			<point x="385" y="250" type="line"/>
			<point x="501" y="250" type="line"/>
			<point x="501" y="9" type="line"/>
			<point x="358" y="9" type="line"/>
			<point x="358" y="45"/>
			<point x="360" y="74"/>
			<point x="366" y="96" type="curve"/>
			<point x="364" y="97" type="line"/>
			<point x="331" y="83"/>
			<point x="280" y="76"/>
			<point x="231" y="76" type="curve" smooth="yes"/>
			<point x="98" y="76"/>
			<point x="31" y="126"/>
		</contour>
	</outline>
</glyph>
<glyph name="dvD_VA" format="2">
	<advance width="591"/>
	<anchor x="224" y="-241" name="blwm.virama"/>
	<anchor x="521" y="607" name="abvm.bindu"/>
	<anchor x="316" y="-270" name="blwm.u"/>
	<anchor x="522" y="607" name="abvm.e"/>
	<outline>
		<contour>
			<point x="382" y="321" type="line"/>
			<point x="382" y="501" type="line"/>
			<point x="524" y="501" type="line"/>
			<point x="524" y="321" type="line"/>
		</contour>
		<contour>
			<point x="-55" y="500" type="line"/>
			<point x="-55" y="607" type="line"/>
			<point x="631" y="607" type="line"/>
			<point x="631" y="500" type="line"/>
		</contour>
		<contour>
			<point x="34" y="-6" type="curve" smooth="yes"/>
			<point x="34" y="66"/>
			<point x="58" y="105"/>
			<point x="99" y="119" type="curve"/>
			<point x="99" y="121" type="line"/>
			<point x="51" y="140"/>
			<point x="31" y="188"/>
			<point x="31" y="253" type="curve" smooth="yes"/>
			<point x="31" y="388"/>
			<point x="92" y="435"/>
			<point x="258" y="435" type="curve" smooth="yes"/>
			<point x="351" y="435"/>
			<point x="459" y="434"/>
			<point x="489" y="431" type="curve"/>
			<point x="489" y="321" type="line"/>
			<point x="275" y="321" type="line" smooth="yes"/>
			<point x="184" y="321"/>
			<point x="165" y="306"/>
			<point x="165" y="246" type="curve" smooth="yes"/>
			<point x="165" y="186"/>
			<point x="185" y="177"/>
			<point x="286" y="177" type="curve" smooth="yes"/>
			<point x="377" y="177"/>
			<point x="398" y="179"/>
			<point x="398" y="226" type="curve" smooth="yes"/>
			<point x="398" y="260" type="line"/>
			<point x="524" y="260" type="line"/>
			<point x="524" y="-12" type="line" smooth="yes"/>
			<point x="524" y="-111"/>
			<point x="475" y="-180"/>
			<point x="285" y="-180" type="curve" smooth="yes"/>
			<point x="103" y="-180"/>
			<point x="34" y="-126"/>
		</contour>
		<contour>
			<point x="171" y="-2" type="curve" smooth="yes"/>
			<point x="171" y="-53"/>
			<point x="192" y="-68"/>
			<point x="285" y="-68" type="curve" smooth="yes"/>
			<point x="371" y="-68"/>
			<point x="392" y="-49"/>
			<point x="392" y="-2" type="curve" smooth="yes"/>
			<point x="392" y="78" type="line"/>
			<point x="390" y="79" type="line"/>
			<point x="366" y="69"/>
			<point x="330" y="66"/>
			<point x="280" y="66" type="curve" smooth="yes"/>
			<point x="195" y="66"/>
			<point x="171" y="49"/>
		</contour>
	</outline>
</glyph>
<glyph name="dvEyelash_HA" format="2">
	<advance width="842"/>
	<anchor x="528" y="-81" name="blwm.virama"/>
	<anchor x="785" y="607" name="abvm.bindu"/>
	<anchor x="610" y="-111" name="blwm.u"/>
	<anchor x="786" y="607" name="abvm.e"/>
	<outline>
		<contour>
			<point x="606" y="-20" type="curve" smooth="yes"/>
			<point x="426" y="-20"/>
			<point x="354" y="17"/>
			<point x="354" y="122" type="curve" smooth="yes"/>
			<point x="354" y="199"/>
			<point x="385" y="226"/>
			<point x="439" y="236" type="curve"/>
			<point x="439" y="239" type="line"/>
			<point x="387" y="250"/>
			<point x="363" y="280"/>
			<point x="363" y="338" type="curve" smooth="yes"/>
			<point x="363" y="410"/>
			<point x="398" y="449"/>
			<point x="520" y="449" type="curve" smooth="yes"/>
			<point x="787" y="449" type="line"/>
			<point x="787" y="347" type="line"/>
			<point x="561" y="347" type="line" smooth="yes"/>
			<point x="512" y="347"/>
			<point x="500" y="342"/>
			<point x="500" y="315" type="curve" smooth="yes"/>
			<point x="500" y="288"/>
			<point x="512" y="284"/>
			<point x="581" y="284" type="curve"/>
			<point x="650" y="284" type="line"/>
			<point x="766" y="284"/>
			<point x="800" y="257"/>
			<point x="800" y="176" type="curve" smooth="yes"/>
			<point x="800" y="144" type="line"/>
			<point x="658" y="144" type="line"/>
			<point x="658" y="152" type="line" smooth="yes"/>
			<point x="658" y="180"/>
			<point x="655" y="185"/>
			<point x="566" y="185" type="curve" smooth="yes"/>
			<point x="507" y="185"/>
			<point x="484" y="175"/>
			<point x="484" y="139" type="curve" smooth="yes"/>
			<point x="484" y="101"/>
			<point x="513" y="90"/>
			<point x="618" y="90" type="curve" smooth="yes"/>
			<point x="679" y="90"/>
			<point x="761" y="92"/>
			<point x="795" y="96" type="curve"/>
			<point x="797" y="95" type="line"/>
			<point x="797" y="-7" type="line"/>
			<point x="760" y="-14"/>
			<point x="684" y="-20"/>
		</contour>
		<contour>
			<point x="284" y="500" type="line"/>
			<point x="284" y="607" type="line"/>
			<point x="877" y="607" type="line"/>
			<point x="877" y="500" type="line"/>
		</contour>
		<contour>
			<point x="664" y="370" type="line"/>
			<point x="664" y="517" type="line"/>
			<point x="787" y="517" type="line"/>
			<point x="787" y="370" type="line"/>
		</contour>
		<contour>
			<point x="-20" y="607" type="line"/>
			<point x="422" y="607" type="line"/>
			<point x="422" y="500" type="line"/>
			<point x="-20" y="500" type="line"/>
		</contour>
		<contour>
			<point x="442" y="240" type="line"/>
			<point x="214" y="240" type="line" smooth="yes"/>
			<point x="89" y="240"/>
			<point x="14" y="280"/>
			<point x="14" y="382" type="curve" smooth="yes"/>
			<point x="14" y="396" type="line"/>
			<point x="140" y="396" type="line"/>
			<point x="140" y="364"/>
			<point x="158" y="350"/>
			<point x="213" y="350" type="curve" smooth="yes"/>
			<point x="363" y="350" type="line"/>
			<point x="364" y="351" type="line"/>
			<point x="442" y="350" type="line"/>
		</contour>
	</outline>
</glyph>
<glyph name="dvGH_NA" format="2">
	<advance width="983"/>
	<anchor x="856" y="0" name="blwm"/>
	<outline>
		<contour>
			<point x="774" y="9" type="line"/>
			<point x="774" y="501" type="line"/>
			<point x="923" y="501" type="line"/>
			<point x="923" y="9" type="line"/>
		</contour>
		<contour>
			<point x="337" y="500" type="line"/>
			<point x="337" y="607" type="line"/>
			<point x="1023" y="607" type="line"/>
			<point x="1023" y="500" type="line"/>
		</contour>
		<contour>
			<point x="534" y="218" type="line"/>
			<point x="534" y="330" type="line"/>
			<point x="892" y="331" type="line"/>
			<point x="892" y="219" type="line"/>
		</contour>
		<contour>
			<point x="522" y="330" type="curve"/>
			<point x="630" y="330" type="line"/>
			<point x="630" y="233" type="line" smooth="yes"/>
			<point x="630" y="139"/>
			<point x="609" y="128"/>
			<point x="519" y="128" type="curve" smooth="yes"/>
			<point x="432" y="128"/>
			<point x="411" y="147"/>
			<point x="411" y="229" type="curve" smooth="yes"/>
			<point x="411" y="318"/>
			<point x="433" y="330"/>
		</contour>
		<contour>
			<point x="-65" y="500" type="line"/>
			<point x="-65" y="607" type="line"/>
			<point x="509" y="607" type="line"/>
			<point x="509" y="500" type="line"/>
		</contour>
		<contour>
			<point x="39" y="436" type="curve" smooth="yes"/>
			<point x="39" y="465"/>
			<point x="50" y="484"/>
			<point x="69" y="497" type="curve"/>
			<point x="69" y="501" type="line"/>
			<point x="260" y="606" type="line"/>
			<point x="260" y="500" type="line"/>
			<point x="197" y="500"/>
			<point x="185" y="483"/>
			<point x="185" y="447" type="curve" smooth="yes"/>
			<point x="185" y="411"/>
			<point x="207" y="395"/>
			<point x="290" y="395" type="curve" smooth="yes"/>
			<point x="309" y="395" type="line"/>
			<point x="309" y="280" type="line"/>
			<point x="290" y="280" type="line" smooth="yes"/>
			<point x="215" y="280"/>
			<point x="193" y="267"/>
			<point x="193" y="227" type="curve" smooth="yes"/>
			<point x="193" y="189"/>
			<point x="215" y="176"/>
			<point x="290" y="176" type="curve" smooth="yes"/>
			<point x="369" y="176"/>
			<point x="411" y="178"/>
			<point x="411" y="229" type="curve"/>
			<point x="527" y="228" type="line"/>
			<point x="527" y="102"/>
			<point x="504" y="54"/>
			<point x="279" y="54" type="curve" smooth="yes"/>
			<point x="88" y="54"/>
			<point x="48" y="105"/>
			<point x="48" y="216" type="curve" smooth="yes"/>
			<point x="48" y="281"/>
			<point x="89" y="330"/>
			<point x="163" y="334" type="curve"/>
			<point x="163" y="338" type="line"/>
			<point x="85" y="341"/>
			<point x="39" y="378"/>
		</contour>
	</outline>
</glyph>
<glyph name="dvJxA" format="2">
	<advance width="673"/>
	<outline>
		<contour>
			<point x="156" y="-59" type="curve"/>
			<point x="158" y="-81"/>
			<point x="159" y="-96"/>
			<point x="159" y="-112" type="curve" smooth="yes"/>
			<point x="159" y="-128"/>
			<point x="158" y="-144"/>
			<point x="156" y="-165" type="curve"/>
			<point x="130" y="-170"/>
			<point x="105" y="-173"/>
			<point x="80" y="-173" type="curve" smooth="yes"/>
			<point x="56" y="-173"/>
			<point x="32" y="-170"/>
			<point x="7" y="-165" type="curve"/>
			<point x="4" y="-145"/>
			<point x="3" y="-129"/>
			<point x="3" y="-113" type="curve" smooth="yes"/>
			<point x="3" y="-98"/>
			<point x="4" y="-81"/>
			<point x="7" y="-59" type="curve"/>
			<point x="32" y="-54"/>
			<point x="57" y="-52"/>
			<point x="82" y="-52" type="curve" smooth="yes"/>
			<point x="106" y="-52"/>
			<point x="131" y="-54"/>
		</contour>
		<component base="dvJA"/>
	</outline>
</glyph>
<glyph name="dvK" format="2">
	<advance width="725"/>
	<outline>
		<contour>
			<point x="193" y="436" type="curve" smooth="yes"/>
			<point x="240" y="436"/>
			<point x="291" y="430"/>
			<point x="328" y="419" type="curve"/>
			<point x="326" y="305" type="line"/>
			<point x="322" y="304" type="line"/>
			<point x="299" y="310"/>
			<point x="272" y="315"/>
			<point x="236" y="315" type="curve" smooth="yes"/>
			<point x="174" y="315"/>
			<point x="160" y="298"/>
			<point x="160" y="248" type="curve" smooth="yes"/>
			<point x="160" y="198"/>
			<point x="174" y="181"/>
			<point x="263" y="181" type="curve" smooth="yes"/>
			<point x="317" y="181"/>
			<point x="361" y="190"/>
			<point x="398" y="210" type="curve"/>
			<point x="386" y="87" type="line"/>
			<point x="384" y="87" type="line"/>
			<point x="354" y="72"/>
			<point x="298" y="62"/>
			<point x="241" y="62" type="curve" smooth="yes"/>
			<point x="76" y="62"/>
			<point x="25" y="108"/>
			<point x="25" y="250" type="curve" smooth="yes"/>
			<point x="25" y="390"/>
			<point x="71" y="436"/>
		</contour>
		<contour>
			<point x="386" y="9" type="line"/>
			<point x="386" y="501" type="line"/>
			<point x="534" y="501" type="line"/>
			<point x="534" y="9" type="line"/>
		</contour>
		<contour>
			<point x="-25" y="500" type="line"/>
			<point x="-25" y="607" type="line"/>
			<point x="865" y="607" type="line"/>
			<point x="865" y="500" type="line"/>
		</contour>
		<contour>
			<point x="865" y="361" type="curve"/>
			<point x="779" y="283" type="line"/>
			<point x="775" y="283" type="line"/>
			<point x="756" y="307"/>
			<point x="728" y="317"/>
			<point x="660" y="317" type="curve" smooth="yes"/>
			<point x="603" y="317"/>
			<point x="559" y="306"/>
			<point x="522" y="286" type="curve"/>
			<point x="534" y="409" type="line"/>
			<point x="536" y="409" type="line"/>
			<point x="566" y="424"/>
			<point x="622" y="434"/>
			<point x="679" y="434" type="curve" smooth="yes"/>
			<point x="781" y="434"/>
			<point x="837" y="412"/>
		</contour>
	</outline>
</glyph>
<glyph name="dvKHx_TA" format="2">
	<advance width="1219"/>
	<outline>
		<contour>
			<point x="182" y="-59" type="curve"/>
			<point x="184" y="-81"/>
			<point x="185" y="-96"/>
			<point x="185" y="-112" type="curve" smooth="yes"/>
			<point x="185" y="-128"/>
			<point x="184" y="-144"/>
			<point x="182" y="-165" type="curve"/>
			<point x="156" y="-170"/>
			<point x="131" y="-173"/>
			<point x="106" y="-173" type="curve" smooth="yes"/>
			<point x="82" y="-173"/>
			<point x="58" y="-170"/>
			<point x="33" y="-165" type="curve"/>
			<point x="30" y="-145"/>
			<point x="29" y="-129"/>
			<point x="29" y="-113" type="curve" smooth="yes"/>
			<point x="29" y="-98"/>
			<point x="30" y="-81"/>
			<point x="33" y="-59" type="curve"/>
			<point x="58" y="-54"/>
			<point x="83" y="-52"/>
			<point x="108" y="-52" type="curve" smooth="yes"/>
			<point x="132" y="-52"/>
			<point x="157" y="-54"/>
		</contour>
		<component base="dvKH"/>
		<component base="dvTA" xOffset="631"/>
	</outline>
</glyph>
<glyph name="dvK_JA" format="2">
	<advance width="1318"/>
	<outline>
		<contour>
			<point x="193" y="436" type="curve" smooth="yes"/>
			<point x="240" y="436"/>
			<point x="291" y="430"/>
			<point x="328" y="419" type="curve"/>
			<point x="326" y="305" type="line"/>
			<point x="322" y="304" type="line"/>
			<point x="299" y="310"/>
			<point x="272" y="315"/>
			<point x="236" y="315" type="curve" smooth="yes"/>
			<point x="174" y="315"/>
			<point x="160" y="298"/>
			<point x="160" y="248" type="curve" smooth="yes"/>
			<point x="160" y="198"/>
			<point x="174" y="181"/>
			<point x="263" y="181" type="curve" smooth="yes"/>
			<point x="317" y="181"/>
			<point x="361" y="190"/>
			<point x="398" y="210" type="curve"/>
			<point x="386" y="87" type="line"/>
			<point x="384" y="87" type="line"/>
			<point x="354" y="72"/>
			<point x="298" y="62"/>
			<point x="241" y="62" type="curve" smooth="yes"/>
			<point x="76" y="62"/>
			<point x="25" y="108"/>
			<point x="25" y="250" type="curve" smooth="yes"/>
			<point x="25" y="390"/>
			<point x="71" y="436"/>
		</contour>
		<contour>
			<point x="386" y="9" type="line"/>
			<point x="386" y="501" type="line"/>
			<point x="534" y="501" type="line"/>
			<point x="534" y="9" type="line"/>
		</contour>
		<contour>
			<point x="-25" y="500" type="line"/>
			<point x="-25" y="607" type="line"/>
			<point x="863" y="607" type="line"/>
			<point x="863" y="500" type="line"/>
		</contour>
		<contour>
			<point x="1111" y="9" type="line"/>
			<point x="1111" y="502" type="line"/>
			<point x="1258" y="502" type="line"/>
			<point x="1258" y="9" type="line"/>
		</contour>
		<contour>
			<point x="610" y="500" type="line"/>
			<point x="610" y="607" type="line"/>
			<point x="1358" y="607" type="line"/>
			<point x="1358" y="500" type="line"/>
		</contour>
		<contour>
			<point x="533" y="244" type="curve"/>
			<point x="518" y="362" type="line"/>
			<point x="564" y="393"/>
			<point x="605" y="403"/>
			<point x="682" y="403" type="curve" smooth="yes"/>
			<point x="1214" y="403" type="line"/>
			<point x="1214" y="297" type="line"/>
			<point x="949" y="297" type="line"/>
			<point x="949" y="296" type="line"/>
			<point x="987" y="281"/>
			<point x="1006" y="237"/>
			<point x="1006" y="180" type="curve" smooth="yes"/>
			<point x="1006" y="47"/>
			<point x="968" y="0"/>
			<point x="828" y="0" type="curve" smooth="yes"/>
			<point x="761" y="0"/>
			<point x="708" y="8"/>
			<point x="666" y="20" type="curve"/>
			<point x="666" y="134" type="line"/>
			<point x="668" y="135" type="line"/>
			<point x="700" y="127"/>
			<point x="738" y="121"/>
			<point x="785" y="121" type="curve" smooth="yes"/>
			<point x="849" y="121"/>
			<point x="870" y="135"/>
			<point x="870" y="209" type="curve" smooth="yes"/>
			<point x="870" y="266"/>
			<point x="853" y="289"/>
			<point x="773" y="289" type="curve" smooth="yes"/>
			<point x="681" y="289"/>
			<point x="604" y="291"/>
		</contour>
	</outline>
</glyph>
<glyph name="dvK_SS_MA" format="2">
	<advance width="1240"/>
	<outline>
		<contour>
			<point x="759" y="262" type="line"/>
			<point x="302" y="262" type="line" smooth="yes"/>
			<point x="229" y="262"/>
			<point x="212" y="250"/>
			<point x="212" y="203" type="curve" smooth="yes"/>
			<point x="212" y="159"/>
			<point x="225" y="146"/>
			<point x="294" y="146" type="curve" smooth="yes"/>
			<point x="370" y="146"/>
			<point x="386" y="156"/>
			<point x="386" y="179" type="curve" smooth="yes"/>
			<point x="386" y="205" type="line"/>
			<point x="521" y="205" type="line"/>
			<point x="521" y="-26" type="line"/>
			<point x="378" y="-26" type="line"/>
			<point x="377" y="2"/>
			<point x="377" y="19"/>
			<point x="381" y="47" type="curve"/>
			<point x="379" y="48" type="line"/>
			<point x="342" y="33"/>
			<point x="307" y="25"/>
			<point x="250" y="25" type="curve" smooth="yes"/>
			<point x="126" y="25"/>
			<point x="58" y="68"/>
			<point x="58" y="185" type="curve" smooth="yes"/>
			<point x="58" y="269"/>
			<point x="102" y="308"/>
			<point x="153" y="317" type="curve"/>
			<point x="153" y="320" type="line"/>
			<point x="108" y="339"/>
			<point x="78" y="377"/>
			<point x="78" y="457" type="curve" smooth="yes"/>
			<point x="78" y="560"/>
			<point x="148" y="613"/>
			<point x="299" y="613" type="curve" smooth="yes"/>
			<point x="447" y="613"/>
			<point x="519" y="561"/>
			<point x="519" y="468" type="curve" smooth="yes"/>
			<point x="519" y="420"/>
			<point x="509" y="395"/>
			<point x="488" y="374" type="curve"/>
			<point x="488" y="372" type="line"/>
			<point x="759" y="372" type="line"/>
		</contour>
		<contour>
			<point x="379" y="445" type="curve" smooth="yes"/>
			<point x="379" y="480"/>
			<point x="363" y="502"/>
			<point x="300" y="502" type="curve" smooth="yes"/>
			<point x="244" y="502"/>
			<point x="221" y="480"/>
			<point x="221" y="445" type="curve" smooth="yes"/>
			<point x="221" y="405"/>
			<point x="244" y="390"/>
			<point x="300" y="390" type="curve" smooth="yes"/>
			<point x="363" y="390"/>
			<point x="379" y="405"/>
		</contour>
		<contour>
			<point x="1031" y="9" type="line"/>
			<point x="1031" y="501" type="line"/>
			<point x="1180" y="501" type="line"/>
			<point x="1180" y="9" type="line"/>
		</contour>
		<contour>
			<point x="579" y="500" type="line"/>
			<point x="579" y="607" type="line"/>
			<point x="1280" y="607" type="line"/>
			<point x="1280" y="500" type="line"/>
		</contour>
		<contour>
			<point x="776" y="174" type="line"/>
			<point x="776" y="286" type="line"/>
			<point x="1149" y="287" type="line"/>
			<point x="1149" y="175" type="line"/>
		</contour>
		<contour>
			<point x="726" y="280" type="curve"/>
			<point x="726" y="500" type="line"/>
			<point x="874" y="500" type="line"/>
			<point x="874" y="196" type="line" smooth="yes"/>
			<point x="874" y="109"/>
			<point x="856" y="94"/>
			<point x="764" y="94" type="curve" smooth="yes"/>
			<point x="667" y="94"/>
			<point x="645" y="113"/>
			<point x="645" y="187" type="curve" smooth="yes"/>
			<point x="645" y="262"/>
			<point x="666" y="280"/>
		</contour>
	</outline>
</glyph>
<glyph name="dvK_SS_R" format="2">
	<advance width="737"/>
	<outline>
		<contour>
			<point x="877" y="262" type="line"/>
			<point x="302" y="262" type="line" smooth="yes"/>
			<point x="229" y="262"/>
			<point x="212" y="250"/>
			<point x="212" y="203" type="curve" smooth="yes"/>
			<point x="212" y="159"/>
			<point x="225" y="146"/>
			<point x="294" y="146" type="curve" smooth="yes"/>
			<point x="370" y="146"/>
			<point x="386" y="156"/>
			<point x="386" y="179" type="curve" smooth="yes"/>
			<point x="386" y="205" type="line"/>
			<point x="521" y="205" type="line"/>
			<point x="521" y="-26" type="line"/>
			<point x="378" y="-26" type="line"/>
			<point x="377" y="2"/>
			<point x="377" y="19"/>
			<point x="381" y="47" type="curve"/>
			<point x="379" y="48" type="line"/>
			<point x="342" y="33"/>
			<point x="307" y="25"/>
			<point x="250" y="25" type="curve" smooth="yes"/>
			<point x="126" y="25"/>
			<point x="58" y="68"/>
			<point x="58" y="185" type="curve" smooth="yes"/>
			<point x="58" y="269"/>
			<point x="102" y="308"/>
			<point x="153" y="317" type="curve"/>
			<point x="153" y="320" type="line"/>
			<point x="108" y="339"/>
			<point x="78" y="377"/>
			<point x="78" y="457" type="curve" smooth="yes"/>
			<point x="78" y="560"/>
			<point x="148" y="613"/>
			<point x="299" y="613" type="curve" smooth="yes"/>
			<point x="447" y="613"/>
			<point x="519" y="561"/>
			<point x="519" y="468" type="curve" smooth="yes"/>
			<point x="519" y="420"/>
			<point x="509" y="395"/>
			<point x="488" y="374" type="curve"/>
			<point x="488" y="372" type="line"/>
			<point x="877" y="372" type="line"/>
		</contour>
		<contour>
			<point x="379" y="445" type="curve" smooth="yes"/>
			<point x="379" y="480"/>
			<point x="363" y="502"/>
			<point x="300" y="502" type="curve" smooth="yes"/>
			<point x="244" y="502"/>
			<point x="221" y="480"/>
			<point x="221" y="445" type="curve" smooth="yes"/>
			<point x="221" y="405"/>
			<point x="244" y="390"/>
			<point x="300" y="390" type="curve" smooth="yes"/>
			<point x="363" y="390"/>
			<point x="379" y="405"/>
		</contour>
		<contour>
			<point x="789" y="298" type="curve"/>
			<point x="789" y="301" type="line"/>
			<point x="877" y="262" type="line"/>
			<point x="725" y="6" type="line"/>
			<point x="549" y="6" type="line"/>
			<point x="549" y="10" type="line"/>
			<point x="622" y="110"/>
			<point x="701" y="208"/>
		</contour>
	</outline>
</glyph>
<glyph name="dvK_S_TA" format="2">
	<advance width="1705"/>
	<outline>
		<contour>
			<point x="193" y="436" type="curve" smooth="yes"/>
			<point x="240" y="436"/>
			<point x="291" y="430"/>
			<point x="328" y="419" type="curve"/>
			<point x="326" y="305" type="line"/>
			<point x="322" y="304" type="line"/>
			<point x="299" y="310"/>
			<point x="272" y="315"/>
			<point x="236" y="315" type="curve" smooth="yes"/>
			<point x="174" y="315"/>
			<point x="160" y="298"/>
			<point x="160" y="248" type="curve" smooth="yes"/>
			<point x="160" y="198"/>
			<point x="174" y="181"/>
			<point x="263" y="181" type="curve" smooth="yes"/>
			<point x="317" y="181"/>
			<point x="361" y="190"/>
			<point x="398" y="210" type="curve"/>
			<point x="386" y="87" type="line"/>
			<point x="384" y="87" type="line"/>
			<point x="354" y="72"/>
			<point x="298" y="62"/>
			<point x="241" y="62" type="curve" smooth="yes"/>
			<point x="76" y="62"/>
			<point x="25" y="108"/>
			<point x="25" y="250" type="curve" smooth="yes"/>
			<point x="25" y="390"/>
			<point x="71" y="436"/>
		</contour>
		<contour>
			<point x="386" y="9" type="line"/>
			<point x="386" y="501" type="line"/>
			<point x="534" y="501" type="line"/>
			<point x="534" y="9" type="line"/>
		</contour>
		<contour>
			<point x="-25" y="500" type="line"/>
			<point x="-25" y="607" type="line"/>
			<point x="863" y="607" type="line"/>
			<point x="863" y="500" type="line"/>
		</contour>
		<contour>
			<point x="915" y="281" type="curve"/>
			<point x="833" y="208" type="line"/>
			<point x="802" y="230"/>
			<point x="747" y="237"/>
			<point x="677" y="237" type="curve" smooth="yes"/>
			<point x="623" y="237"/>
			<point x="561" y="224"/>
			<point x="522" y="206" type="curve"/>
			<point x="534" y="329" type="line"/>
			<point x="536" y="329" type="line"/>
			<point x="574" y="344"/>
			<point x="642" y="354"/>
			<point x="699" y="354" type="curve" smooth="yes"/>
			<point x="747" y="354"/>
			<point x="805" y="346"/>
			<point x="831" y="338" type="curve"/>
			<point x="833" y="338" type="line"/>
			<point x="875" y="326"/>
			<point x="899" y="313"/>
		</contour>
		<component base="dvS_TA" xOffset="695"/>
	</outline>
</glyph>
<glyph name="dvK_THA" format="2">
	<advance width="1409"/>
	<outline>
		<contour>
			<point x="193" y="436" type="curve" smooth="yes"/>
			<point x="240" y="436"/>
			<point x="291" y="430"/>
			<point x="328" y="419" type="curve"/>
			<point x="326" y="305" type="line"/>
			<point x="322" y="304" type="line"/>
			<point x="299" y="310"/>
			<point x="272" y="315"/>
			<point x="236" y="315" type="curve" smooth="yes"/>
			<point x="174" y="315"/>
			<point x="160" y="298"/>
			<point x="160" y="248" type="curve" smooth="yes"/>
			<point x="160" y="198"/>
			<point x="174" y="181"/>
			<point x="263" y="181" type="curve" smooth="yes"/>
			<point x="317" y="181"/>
			<point x="361" y="190"/>
			<point x="398" y="210" type="curve"/>
			<point x="386" y="87" type="line"/>
			<point x="384" y="87" type="line"/>
			<point x="354" y="72"/>
			<point x="298" y="62"/>
			<point x="241" y="62" type="curve" smooth="yes"/>
			<point x="76" y="62"/>
			<point x="25" y="108"/>
			<point x="25" y="250" type="curve" smooth="yes"/>
			<point x="25" y="390"/>
			<point x="71" y="436"/>
		</contour>
		<contour>
			<point x="386" y="9" type="line"/>
			<point x="386" y="501" type="line"/>
			<point x="534" y="501" type="line"/>
			<point x="534" y="9" type="line"/>
		</contour>
		<contour>
			<point x="-25" y="500" type="line"/>
			<point x="-25" y="607" type="line"/>
			<point x="723" y="607" type="line"/>
			<point x="723" y="500" type="line"/>
		</contour>
		<contour>
			<point x="865" y="288" type="curve"/>
			<point x="762" y="210" type="line"/>
			<point x="756" y="229"/>
			<point x="738" y="242"/>
			<point x="657" y="242" type="curve" smooth="yes"/>
			<point x="603" y="242"/>
			<point x="559" y="233"/>
			<point x="522" y="213" type="curve"/>
			<point x="534" y="336" type="line"/>
			<point x="536" y="336" type="line"/>
			<point x="573" y="352"/>
			<point x="622" y="361"/>
			<point x="679" y="361" type="curve" smooth="yes"/>
			<point x="781" y="361"/>
			<point x="838" y="341"/>
		</contour>
		<contour>
			<point x="1032" y="60" type="curve" smooth="yes"/>
			<point x="835" y="60"/>
			<point x="755" y="141"/>
			<point x="755" y="271" type="curve" smooth="yes"/>
			<point x="755" y="356" type="line"/>
			<point x="870" y="356" type="line"/>
			<point x="962" y="356"/>
			<point x="998" y="380"/>
			<point x="998" y="439" type="curve" smooth="yes"/>
			<point x="998" y="484"/>
			<point x="983" y="500"/>
			<point x="949" y="500" type="curve" smooth="yes"/>
			<point x="917" y="500"/>
			<point x="903" y="486"/>
			<point x="903" y="462" type="curve" smooth="yes"/>
			<point x="903" y="454"/>
			<point x="904" y="447"/>
			<point x="906" y="440" type="curve"/>
			<point x="906" y="438" type="line"/>
			<point x="783" y="438" type="line"/>
			<point x="781" y="450"/>
			<point x="780" y="464"/>
			<point x="780" y="475" type="curve" smooth="yes"/>
			<point x="780" y="572"/>
			<point x="843" y="616"/>
			<point x="957" y="616" type="curve" smooth="yes"/>
			<point x="1071" y="616"/>
			<point x="1131" y="559"/>
			<point x="1131" y="438" type="curve" smooth="yes"/>
			<point x="1131" y="317"/>
			<point x="1065" y="253"/>
			<point x="936" y="253" type="curve" smooth="yes"/>
			<point x="924" y="253"/>
			<point x="910" y="254"/>
			<point x="897" y="255" type="curve"/>
			<point x="900" y="207"/>
			<point x="955" y="186"/>
			<point x="1049" y="186" type="curve" smooth="yes"/>
			<point x="1128" y="186"/>
			<point x="1205" y="213"/>
			<point x="1256" y="254" type="curve"/>
			<point x="1275" y="130" type="line"/>
			<point x="1229" y="94"/>
			<point x="1149" y="60"/>
		</contour>
		<contour>
			<point x="1201" y="9" type="line"/>
			<point x="1201" y="501" type="line"/>
			<point x="1349" y="501" type="line"/>
			<point x="1349" y="9" type="line"/>
		</contour>
		<contour>
			<point x="1201" y="500" type="line"/>
			<point x="1201" y="607" type="line"/>
			<point x="1449" y="607" type="line"/>
			<point x="1449" y="500" type="line"/>
		</contour>
	</outline>
</glyph>
<glyph name="dvKx_MA" format="2">
	<advance width="1306"/>
	<outline>
		<contour>
			<point x="271" y="-2" type="curve"/>
			<point x="273" y="-24"/>
			<point x="274" y="-39"/>
			<point x="274" y="-55" type="curve" smooth="yes"/>
			<point x="274" y="-71"/>
			<point x="273" y="-87"/>
			<point x="271" y="-108" type="curve"/>
			<point x="245" y="-113"/>
			<point x="220" y="-116"/>
			<point x="195" y="-116" type="curve" smooth="yes"/>
			<point x="171" y="-116"/>
			<point x="147" y="-113"/>
			<point x="122" y="-108" type="curve"/>
			<point x="119" y="-88"/>
			<point x="118" y="-72"/>
			<point x="118" y="-56" type="curve" smooth="yes"/>
			<point x="118" y="-41"/>
			<point x="119" y="-24"/>
			<point x="122" y="-2" type="curve"/>
			<point x="147" y="3"/>
			<point x="172" y="5"/>
			<point x="197" y="5" type="curve" smooth="yes"/>
			<point x="221" y="5"/>
			<point x="246" y="3"/>
		</contour>
		<component base="dvK_MA"/>
	</outline>
</glyph>
<glyph name="dvL_KA" format="2">
	<advance width="1462"/>
	<anchor x="928" y="-51" name="blwm.virama"/>
	<anchor x="1075" y="607" name="abvm.bindu"/>
	<anchor x="1010" y="-81" name="blwm.u"/>
	<anchor x="1076" y="607" name="abvm.e"/>
	<outline>
		<contour>
			<point x="928" y="9" type="line"/>
			<point x="928" y="501" type="line"/>
			<point x="1076" y="501" type="line"/>
			<point x="1076" y="9" type="line"/>
		</contour>
		<contour>
			<point x="497" y="500" type="line"/>
			<point x="497" y="607" type="line"/>
			<point x="1487" y="607" type="line"/>
			<point x="1487" y="500" type="line"/>
		</contour>
		<contour>
			<point x="735" y="436" type="curve" smooth="yes"/>
			<point x="782" y="436"/>
			<point x="833" y="430"/>
			<point x="870" y="419" type="curve"/>
			<point x="868" y="305" type="line"/>
			<point x="864" y="304" type="line"/>
			<point x="841" y="310"/>
			<point x="814" y="315"/>
			<point x="778" y="315" type="curve" smooth="yes"/>
			<point x="716" y="315"/>
			<point x="702" y="298"/>
			<point x="702" y="248" type="curve" smooth="yes"/>
			<point x="702" y="198"/>
			<point x="716" y="181"/>
			<point x="805" y="181" type="curve" smooth="yes"/>
			<point x="859" y="181"/>
			<point x="903" y="190"/>
			<point x="940" y="210" type="curve"/>
			<point x="928" y="87" type="line"/>
			<point x="926" y="87" type="line"/>
			<point x="896" y="72"/>
			<point x="840" y="62"/>
			<point x="783" y="62" type="curve" smooth="yes"/>
			<point x="613" y="62"/>
			<point x="562" y="108"/>
			<point x="562" y="250" type="curve" smooth="yes"/>
			<point x="562" y="390"/>
			<point x="608" y="436"/>
		</contour>
		<contour>
			<point x="1269" y="60" type="curve" smooth="yes"/>
			<point x="1222" y="60"/>
			<point x="1171" y="66"/>
			<point x="1134" y="77" type="curve"/>
			<point x="1136" y="191" type="line"/>
			<point x="1140" y="192" type="line"/>
			<point x="1163" y="186"/>
			<point x="1190" y="181"/>
			<point x="1226" y="181" type="curve" smooth="yes"/>
			<point x="1288" y="181"/>
			<point x="1302" y="198"/>
			<point x="1302" y="248" type="curve" smooth="yes"/>
			<point x="1302" y="298"/>
			<point x="1288" y="315"/>
			<point x="1199" y="315" type="curve" smooth="yes"/>
			<point x="1145" y="315"/>
			<point x="1101" y="306"/>
			<point x="1064" y="286" type="curve"/>
			<point x="1076" y="409" type="line"/>
			<point x="1078" y="409" type="line"/>
			<point x="1108" y="424"/>
			<point x="1164" y="434"/>
			<point x="1221" y="434" type="curve" smooth="yes"/>
			<point x="1391" y="434"/>
			<point x="1442" y="388"/>
			<point x="1442" y="246" type="curve" smooth="yes"/>
			<point x="1442" y="106"/>
			<point x="1396" y="60"/>
		</contour>
		<component base="dvL"/>
	</outline>
</glyph>
<glyph name="dvL_RA" format="2">
	<advance width="794"/>
	<outline>
		<contour>
			<point x="54" y="9" type="line"/>
			<point x="15" y="81"/>
			<point x="-7" y="159"/>
			<point x="-7" y="236" type="curve" smooth="yes"/>
			<point x="-7" y="366"/>
			<point x="57" y="420"/>
			<point x="178" y="420" type="curve" smooth="yes"/>
			<point x="283" y="420"/>
			<point x="330" y="383"/>
			<point x="339" y="326" type="curve"/>
			<point x="342" y="326" type="line"/>
			<point x="352" y="383"/>
			<point x="396" y="419"/>
			<point x="492" y="419" type="curve" smooth="yes"/>
			<point x="533" y="419"/>
			<point x="569" y="409"/>
			<point x="583" y="393" type="curve"/>
			<point x="585" y="395" type="line"/>
			<point x="657" y="366"/>
			<point x="704" y="326"/>
			<point x="706" y="193" type="curve"/>
			<point x="586" y="193" type="line"/>
			<point x="586" y="277"/>
			<point x="547" y="294"/>
			<point x="500" y="294" type="curve" smooth="yes"/>
			<point x="449" y="294"/>
			<point x="412" y="277"/>
			<point x="412" y="193" type="curve" smooth="yes"/>
			<point x="412" y="156" type="line"/>
			<point x="280" y="156" type="line"/>
			<point x="280" y="193" type="line" smooth="yes"/>
			<point x="280" y="274"/>
			<point x="259" y="294"/>
			<point x="212" y="294" type="curve" smooth="yes"/>
			<point x="160" y="294"/>
			<point x="141" y="270"/>
			<point x="141" y="203" type="curve" smooth="yes"/>
			<point x="141" y="138"/>
			<point x="157" y="79"/>
			<point x="196" y="14" type="curve"/>
			<point x="196" y="9" type="line"/>
		</contour>
		<contour>
			<point x="-10" y="500" type="line"/>
			<point x="-10" y="607" type="line"/>
			<point x="834" y="607" type="line"/>
			<point x="834" y="500" type="line"/>
		</contour>
		<contour>
			<point x="595" y="9" type="line"/>
			<point x="595" y="214" type="line"/>
			<point x="585" y="225" type="line"/>
			<point x="585" y="501" type="line"/>
			<point x="734" y="501" type="line"/>
			<point x="734" y="9" type="line"/>
		</contour>
		<contour>
			<point x="586" y="227" type="curve"/>
			<point x="621" y="159" type="line"/>
			<point x="596" y="124" type="line"/>
			<point x="593" y="124" type="line"/>
			<point x="482" y="9" type="line"/>
			<point x="316" y="9" type="line"/>
			<point x="316" y="13" type="line"/>
			<point x="383" y="88"/>
			<point x="490" y="167"/>
		</contour>
	</outline>
</glyph>
<glyph name="dvM_R" format="2">
	<advance width="490"/>
	<outline>
		<contour>
			<point x="145" y="134" type="curve" smooth="yes"/>
			<point x="237" y="134"/>
			<point x="255" y="149"/>
			<point x="255" y="236" type="curve" smooth="yes"/>
			<point x="255" y="540" type="line"/>
			<point x="107" y="540" type="line"/>
			<point x="107" y="320" type="line"/>
			<point x="47" y="320"/>
			<point x="26" y="302"/>
			<point x="26" y="227" type="curve" smooth="yes"/>
			<point x="26" y="153"/>
			<point x="48" y="134"/>
		</contour>
		<contour>
			<point x="238" y="1" type="curve"/>
			<point x="238" y="-3" type="line"/>
			<point x="404" y="-3" type="line"/>
			<point x="560" y="208" type="line"/>
			<point x="560" y="226" type="line"/>
			<point x="448" y="256" type="line"/>
			<point x="405" y="214" type="line"/>
			<point x="405" y="206" type="line"/>
			<point x="348" y="152"/>
			<point x="274" y="62"/>
		</contour>
		<contour>
			<point x="157" y="209" type="line"/>
			<point x="560" y="210" type="line"/>
			<point x="560" y="322" type="line"/>
			<point x="157" y="321" type="line"/>
		</contour>
		<contour>
			<point x="-75" y="500" type="line"/>
			<point x="530" y="500" type="line"/>
			<point x="530" y="607" type="line"/>
			<point x="-75" y="607" type="line"/>
		</contour>
	</outline>
</glyph>
<glyph name="dvN_BHA" format="2">
	<advance width="979"/>
	<outline>
		<contour>
			<point x="-60" y="500" type="line"/>
			<point x="-60" y="607" type="line"/>
			<point x="453" y="607" type="line"/>
			<point x="453" y="500" type="line"/>
		</contour>
		<contour>
			<point x="146" y="178" type="line"/>
			<point x="146" y="290" type="line"/>
			<point x="473" y="291" type="line"/>
			<point x="473" y="179" type="line"/>
		</contour>
		<contour>
			<point x="134" y="290" type="curve"/>
			<point x="234" y="290" type="line"/>
			<point x="234" y="201" type="line" smooth="yes"/>
			<point x="234" y="114"/>
			<point x="214" y="104"/>
			<point x="131" y="104" type="curve" smooth="yes"/>
			<point x="51" y="104"/>
			<point x="31" y="121"/>
			<point x="31" y="197" type="curve" smooth="yes"/>
			<point x="31" y="279"/>
			<point x="52" y="290"/>
		</contour>
		<contour>
			<point x="770" y="9" type="line"/>
			<point x="770" y="501" type="line"/>
			<point x="919" y="501" type="line"/>
			<point x="919" y="9" type="line"/>
		</contour>
		<contour>
			<point x="770" y="500" type="line"/>
			<point x="770" y="607" type="line"/>
			<point x="1019" y="607" type="line"/>
			<point x="1019" y="500" type="line"/>
		</contour>
		<contour>
			<point x="502" y="178" type="line"/>
			<point x="502" y="290" type="line"/>
			<point x="875" y="290" type="line"/>
			<point x="875" y="178" type="line"/>
		</contour>
		<contour>
			<point x="416" y="500" type="curve" smooth="yes"/>
			<point x="293" y="500" type="line"/>
			<point x="293" y="607" type="line"/>
			<point x="453" y="607" type="line" smooth="yes"/>
			<point x="578" y="607"/>
			<point x="615" y="558"/>
			<point x="615" y="422" type="curve" smooth="yes"/>
			<point x="615" y="206" type="line" smooth="yes"/>
			<point x="615" y="119"/>
			<point x="597" y="104"/>
			<point x="505" y="104" type="curve" smooth="yes"/>
			<point x="408" y="104"/>
			<point x="386" y="123"/>
			<point x="386" y="197" type="curve" smooth="yes"/>
			<point x="386" y="272"/>
			<point x="407" y="290"/>
			<point x="467" y="290" type="curve"/>
			<point x="467" y="433" type="line" smooth="yes"/>
			<point x="467" y="482"/>
			<point x="459" y="500"/>
		</contour>
	</outline>
</glyph>
<glyph name="dvN_M_YA" format="2">
	<advance width="1371"/>
	<outline>
		<contour>
			<point x="-60" y="500" type="line"/>
			<point x="-60" y="607" type="line"/>
			<point x="403" y="607" type="line"/>
			<point x="403" y="500" type="line"/>
		</contour>
		<contour>
			<point x="146" y="219" type="line"/>
			<point x="146" y="331" type="line"/>
			<point x="453" y="332" type="line"/>
			<point x="453" y="220" type="line"/>
		</contour>
		<contour>
			<point x="134" y="331" type="curve"/>
			<point x="234" y="331" type="line"/>
			<point x="234" y="242" type="line" smooth="yes"/>
			<point x="234" y="155"/>
			<point x="214" y="145"/>
			<point x="131" y="145" type="curve" smooth="yes"/>
			<point x="51" y="145"/>
			<point x="31" y="162"/>
			<point x="31" y="238" type="curve" smooth="yes"/>
			<point x="31" y="320"/>
			<point x="52" y="331"/>
		</contour>
		<contour>
			<point x="238" y="500" type="line"/>
			<point x="238" y="607" type="line"/>
			<point x="843" y="607" type="line"/>
			<point x="843" y="500" type="line"/>
		</contour>
		<contour>
			<point x="500" y="225" type="line"/>
			<point x="500" y="337" type="line"/>
			<point x="833" y="338" type="line"/>
			<point x="833" y="226" type="line"/>
		</contour>
		<contour>
			<point x="450" y="331" type="curve"/>
			<point x="450" y="511" type="line"/>
			<point x="598" y="511" type="line"/>
			<point x="598" y="247" type="line" smooth="yes"/>
			<point x="598" y="160"/>
			<point x="581" y="145"/>
			<point x="489" y="145" type="curve" smooth="yes"/>
			<point x="392" y="145"/>
			<point x="369" y="164"/>
			<point x="369" y="238" type="curve" smooth="yes"/>
			<point x="369" y="313"/>
			<point x="390" y="331"/>
		</contour>
		<contour>
			<point x="1163" y="9" type="line"/>
			<point x="1163" y="501" type="line"/>
			<point x="1311" y="501" type="line"/>
			<point x="1311" y="9" type="line"/>
		</contour>
		<contour>
			<point x="653" y="500" type="line"/>
			<point x="653" y="607" type="line"/>
			<point x="1411" y="607" type="line"/>
			<point x="1411" y="500" type="line"/>
		</contour>
		<contour>
			<point x="1014" y="520" type="line"/>
			<point x="1014" y="422" type="line" smooth="yes"/>
			<point x="1014" y="290"/>
			<point x="971" y="247"/>
			<point x="850" y="240" type="curve"/>
			<point x="855" y="215"/>
			<point x="897" y="200"/>
			<point x="1007" y="200" type="curve" smooth="yes"/>
			<point x="1095" y="200"/>
			<point x="1158" y="216"/>
			<point x="1212" y="257" type="curve"/>
			<point x="1243" y="146" type="line"/>
			<point x="1218" y="125"/>
			<point x="1196" y="110"/>
			<point x="1163" y="98" type="curve"/>
			<point x="1159" y="100" type="line"/>
			<point x="1112" y="84"/>
			<point x="1060" y="76"/>
			<point x="993" y="76" type="curve" smooth="yes"/>
			<point x="812" y="76"/>
			<point x="716" y="138"/>
			<point x="716" y="282" type="curve" smooth="yes"/>
			<point x="716" y="337" type="line"/>
			<point x="764" y="337" type="line" smooth="yes"/>
			<point x="857" y="337"/>
			<point x="872" y="349"/>
			<point x="872" y="464" type="curve" smooth="yes"/>
			<point x="872" y="520" type="line"/>
		</contour>
	</outline>
</glyph>
<glyph name="dvN_PH_RA" format="2">
	<advance width="1265"/>
	<anchor x="726" y="-51" name="blwm.virama"/>
	<anchor x="876" y="607" name="abvm.bindu"/>
	<anchor x="817" y="-81" name="blwm.u"/>
	<anchor x="877" y="607" name="abvm.e"/>
	<outline>
		<contour>
			<point x="730" y="9" type="line"/>
			<point x="730" y="501" type="line"/>
			<point x="879" y="501" type="line"/>
			<point x="879" y="9" type="line"/>
		</contour>
		<contour>
			<point x="313" y="500" type="line"/>
			<point x="313" y="607" type="line"/>
			<point x="1310" y="607" type="line"/>
			<point x="1310" y="500" type="line"/>
		</contour>
		<contour>
			<point x="1072" y="60" type="curve" smooth="yes"/>
			<point x="1025" y="60"/>
			<point x="974" y="66"/>
			<point x="937" y="77" type="curve"/>
			<point x="939" y="191" type="line"/>
			<point x="943" y="192" type="line"/>
			<point x="966" y="186"/>
			<point x="993" y="181"/>
			<point x="1029" y="181" type="curve" smooth="yes"/>
			<point x="1091" y="181"/>
			<point x="1105" y="198"/>
			<point x="1105" y="248" type="curve" smooth="yes"/>
			<point x="1105" y="298"/>
			<point x="1091" y="315"/>
			<point x="1002" y="315" type="curve" smooth="yes"/>
			<point x="948" y="315"/>
			<point x="904" y="306"/>
			<point x="867" y="286" type="curve"/>
			<point x="879" y="409" type="line"/>
			<point x="881" y="409" type="line"/>
			<point x="911" y="424"/>
			<point x="967" y="434"/>
			<point x="1024" y="434" type="curve" smooth="yes"/>
			<point x="1189" y="434"/>
			<point x="1240" y="388"/>
			<point x="1240" y="246" type="curve" smooth="yes"/>
			<point x="1240" y="106"/>
			<point x="1194" y="60"/>
		</contour>
		<contour>
			<point x="403" y="9" type="line"/>
			<point x="403" y="13" type="line"/>
			<point x="452" y="78"/>
			<point x="503" y="129"/>
			<point x="572" y="177" type="curve"/>
			<point x="572" y="180" type="line"/>
			<point x="571" y="182" type="line"/>
			<point x="747" y="213" type="line"/>
			<point x="578" y="9" type="line"/>
		</contour>
		<contour>
			<point x="609" y="179" type="curve" smooth="yes"/>
			<point x="466" y="179"/>
			<point x="416" y="224"/>
			<point x="416" y="384" type="curve" smooth="yes"/>
			<point x="416" y="553" type="line"/>
			<point x="551" y="554" type="line"/>
			<point x="551" y="375" type="line" smooth="yes"/>
			<point x="551" y="305"/>
			<point x="584" y="288"/>
			<point x="649" y="288" type="curve" smooth="yes"/>
			<point x="690" y="288"/>
			<point x="729" y="299"/>
			<point x="753" y="314" type="curve"/>
			<point x="757" y="199" type="line"/>
			<point x="750" y="195"/>
			<point x="738" y="188"/>
			<point x="730" y="185" type="curve"/>
			<point x="726" y="187" type="line"/>
			<point x="693" y="175"/>
			<point x="654" y="179"/>
		</contour>
		<component base="dvN"/>
	</outline>
</glyph>
<glyph name="dvP" format="2">
	<advance width="350"/>
	<outline>
		<contour>
			<point x="246" y="99" type="curve" smooth="yes"/>
			<point x="100" y="99"/>
			<point x="50" y="154"/>
			<point x="50" y="314" type="curve" smooth="yes"/>
			<point x="50" y="513" type="line"/>
			<point x="198" y="514" type="line"/>
			<point x="198" y="305" type="line" smooth="yes"/>
			<point x="198" y="242"/>
			<point x="221" y="225"/>
			<point x="286" y="225" type="curve" smooth="yes"/>
			<point x="337" y="225"/>
			<point x="386" y="236"/>
			<point x="420" y="251" type="curve"/>
			<point x="454" y="139" type="line"/>
			<point x="403" y="115"/>
			<point x="320" y="99"/>
		</contour>
		<contour>
			<point x="-50" y="500" type="line"/>
			<point x="-50" y="607" type="line"/>
			<point x="515" y="607" type="line"/>
			<point x="515" y="500" type="line"/>
		</contour>
	</outline>
</glyph>
<glyph name="dvPH_JA" format="2">
	<advance width="1159"/>
	<outline>
		<contour>
			<point x="266" y="163" type="curve" smooth="yes"/>
			<point x="110" y="163"/>
			<point x="50" y="218"/>
			<point x="50" y="378" type="curve" smooth="yes"/>
			<point x="50" y="577" type="line"/>
			<point x="198" y="578" type="line"/>
			<point x="198" y="369" type="line" smooth="yes"/>
			<point x="198" y="306"/>
			<point x="221" y="289"/>
			<point x="286" y="289" type="curve" smooth="yes"/>
			<point x="337" y="289"/>
			<point x="386" y="302"/>
			<point x="420" y="325" type="curve"/>
			<point x="454" y="203" type="line"/>
			<point x="403" y="179"/>
			<point x="340" y="163"/>
		</contour>
		<contour>
			<point x="-50" y="500" type="line"/>
			<point x="-50" y="607" type="line"/>
			<point x="515" y="607" type="line"/>
			<point x="515" y="500" type="line"/>
		</contour>
		<component base="dvJHA" xOffset="350"/>
	</outline>
</glyph>
<glyph name="dvPH_LA" format="2">
	<advance width="1470"/>
	<outline>
		<contour>
			<point x="50" y="315" type="curve" smooth="yes"/>
			<point x="50" y="505" type="line"/>
			<point x="198" y="505" type="line"/>
			<point x="198" y="297" type="line" smooth="yes"/>
			<point x="198" y="247"/>
			<point x="217" y="228"/>
			<point x="288" y="228" type="curve" smooth="yes"/>
			<point x="324" y="228"/>
			<point x="356" y="235"/>
			<point x="377" y="248" type="curve"/>
			<point x="388" y="127" type="line"/>
			<point x="380" y="122"/>
			<point x="373" y="125"/>
			<point x="361" y="122" type="curve"/>
			<point x="359" y="123" type="line"/>
			<point x="333" y="111"/>
			<point x="295" y="103"/>
			<point x="258" y="103" type="curve" smooth="yes"/>
			<point x="97" y="103"/>
			<point x="50" y="164"/>
		</contour>
		<contour>
			<point x="361" y="9" type="line"/>
			<point x="361" y="501" type="line"/>
			<point x="510" y="501" type="line"/>
			<point x="510" y="9" type="line"/>
		</contour>
		<contour>
			<point x="-50" y="500" type="line"/>
			<point x="-50" y="607" type="line"/>
			<point x="781" y="607" type="line"/>
			<point x="781" y="500" type="line"/>
		</contour>
		<contour>
			<point x="835" y="310" type="curve"/>
			<point x="746" y="219" type="line"/>
			<point x="734" y="245"/>
			<point x="698" y="254"/>
			<point x="627" y="254" type="curve" smooth="yes"/>
			<point x="573" y="254"/>
			<point x="529" y="245"/>
			<point x="492" y="225" type="curve"/>
			<point x="504" y="358" type="line"/>
			<point x="506" y="358" type="line"/>
			<point x="536" y="373"/>
			<point x="592" y="383"/>
			<point x="649" y="383" type="curve" smooth="yes"/>
			<point x="751" y="383"/>
			<point x="808" y="363"/>
		</contour>
		<component base="dvLA" xOffset="676"/>
	</outline>
</glyph>
<glyph name="dvPHx_TA" format="2">
	<advance width="1284"/>
	<outline>
		<contour>
			<point x="50" y="315" type="curve" smooth="yes"/>
			<point x="50" y="505" type="line"/>
			<point x="198" y="505" type="line"/>
			<point x="198" y="297" type="line" smooth="yes"/>
			<point x="198" y="247"/>
			<point x="217" y="228"/>
			<point x="288" y="228" type="curve" smooth="yes"/>
			<point x="324" y="228"/>
			<point x="356" y="235"/>
			<point x="377" y="248" type="curve"/>
			<point x="388" y="127" type="line"/>
			<point x="380" y="122"/>
			<point x="373" y="125"/>
			<point x="361" y="122" type="curve"/>
			<point x="359" y="123" type="line"/>
			<point x="333" y="111"/>
			<point x="295" y="103"/>
			<point x="258" y="103" type="curve" smooth="yes"/>
			<point x="97" y="103"/>
			<point x="50" y="164"/>
		</contour>
		<contour>
			<point x="361" y="9" type="line"/>
			<point x="361" y="501" type="line"/>
			<point x="510" y="501" type="line"/>
			<point x="510" y="9" type="line"/>
		</contour>
		<contour>
			<point x="-50" y="500" type="line"/>
			<point x="-50" y="607" type="line"/>
			<point x="781" y="607" type="line"/>
			<point x="781" y="500" type="line"/>
		</contour>
		<contour>
			<point x="835" y="320" type="curve"/>
			<point x="746" y="229" type="line"/>
			<point x="734" y="255"/>
			<point x="698" y="264"/>
			<point x="627" y="264" type="curve" smooth="yes"/>
			<point x="573" y="264"/>
			<point x="529" y="255"/>
			<point x="492" y="235" type="curve"/>
			<point x="504" y="368" type="line"/>
			<point x="506" y="368" type="line"/>
			<point x="536" y="383"/>
			<point x="592" y="393"/>
			<point x="649" y="393" type="curve" smooth="yes"/>
			<point x="751" y="393"/>
			<point x="808" y="373"/>
		</contour>
		<contour>
			<point x="223" y="21" type="curve"/>
			<point x="225" y="-1"/>
			<point x="226" y="-16"/>
			<point x="226" y="-32" type="curve" smooth="yes"/>
			<point x="226" y="-48"/>
			<point x="225" y="-64"/>
			<point x="223" y="-85" type="curve"/>
			<point x="197" y="-90"/>
			<point x="172" y="-93"/>
			<point x="147" y="-93" type="curve" smooth="yes"/>
			<point x="123" y="-93"/>
			<point x="99" y="-90"/>
			<point x="74" y="-85" type="curve"/>
			<point x="71" y="-65"/>
			<point x="70" y="-49"/>
			<point x="70" y="-33" type="curve" smooth="yes"/>
			<point x="70" y="-18"/>
			<point x="71" y="-1"/>
			<point x="74" y="21" type="curve"/>
			<point x="99" y="26"/>
			<point x="124" y="28"/>
			<point x="149" y="28" type="curve" smooth="yes"/>
			<point x="173" y="28"/>
			<point x="198" y="26"/>
		</contour>
		<component base="dvTA" xOffset="696"/>
	</outline>
</glyph>
<glyph name="dvP_RA" format="2">
	<advance width="576"/>
	<outline>
		<contour>
			<point x="40" y="9" type="line"/>
			<point x="40" y="13" type="line"/>
			<point x="89" y="78"/>
			<point x="140" y="129"/>
			<point x="209" y="177" type="curve"/>
			<point x="209" y="180" type="line"/>
			<point x="208" y="182" type="line"/>
			<point x="384" y="213" type="line"/>
			<point x="215" y="9" type="line"/>
		</contour>
		<contour>
			<point x="246" y="179" type="curve" smooth="yes"/>
			<point x="103" y="179"/>
			<point x="53" y="224"/>
			<point x="53" y="384" type="curve" smooth="yes"/>
			<point x="53" y="553" type="line"/>
			<point x="188" y="554" type="line"/>
			<point x="188" y="375" type="line" smooth="yes"/>
			<point x="188" y="305"/>
			<point x="221" y="288"/>
			<point x="286" y="288" type="curve" smooth="yes"/>
			<point x="327" y="288"/>
			<point x="366" y="299"/>
			<point x="390" y="314" type="curve"/>
			<point x="394" y="199" type="line"/>
			<point x="387" y="195"/>
			<point x="375" y="188"/>
			<point x="367" y="185" type="curve"/>
			<point x="363" y="187" type="line"/>
			<point x="330" y="175"/>
			<point x="291" y="179"/>
		</contour>
		<contour>
			<point x="366" y="9" type="line"/>
			<point x="366" y="501" type="line"/>
			<point x="514" y="501" type="line"/>
			<point x="514" y="9" type="line"/>
		</contour>
		<contour>
			<point x="-50" y="500" type="line"/>
			<point x="-50" y="607" type="line"/>
			<point x="615" y="607" type="line"/>
			<point x="615" y="500" type="line"/>
		</contour>
	</outline>
</glyph>
<glyph name="dvRakar" format="2">
	<advance width="0"/>
	<outline>
		<contour>
			<point x="-494" y="-119" type="line"/>
			<point x="-494" y="-115" type="line"/>
			<point x="-410" y="42" type="line"/>
			<point x="-410" y="43" type="line"/>
			<point x="-403" y="61" type="line"/>
			<point x="-269" y="61" type="line"/>
			<point x="-260" y="45" type="line"/>
			<point x="-260" y="43" type="line"/>
			<point x="-168" y="-115" type="line"/>
			<point x="-168" y="-119" type="line"/>
			<point x="-284" y="-119" type="line"/>
			<point x="-330" y="2" type="line"/>
			<point x="-332" y="2" type="line"/>
			<point x="-376" y="-119" type="line"/>
		</contour>
	</outline>
</glyph>
<glyph name="dvSS_K_RA" format="2">
	<advance width="1253"/>
	<anchor x="751" y="-51" name="blwm.virama"/>
	<anchor x="898" y="607" name="abvm.bindu"/>
	<anchor x="833" y="-81" name="blwm.u"/>
	<anchor x="899" y="607" name="abvm.e"/>
	<outline>
		<contour>
			<point x="418" y="248" type="line"/>
			<point x="449" y="306" type="line"/>
			<point x="183" y="488" type="line"/>
			<point x="144" y="430" type="line"/>
		</contour>
		<contour>
			<point x="-50" y="500" type="line"/>
			<point x="429" y="500" type="line"/>
			<point x="429" y="607" type="line"/>
			<point x="-50" y="607" type="line"/>
		</contour>
		<contour>
			<point x="270" y="100" type="curve" smooth="yes"/>
			<point x="346" y="100"/>
			<point x="411" y="115"/>
			<point x="465" y="139" type="curve"/>
			<point x="441" y="243" type="line"/>
			<point x="395" y="227"/>
			<point x="345" y="219"/>
			<point x="294" y="219" type="curve" smooth="yes"/>
			<point x="219" y="219"/>
			<point x="186" y="239"/>
			<point x="186" y="302" type="curve" smooth="yes"/>
			<point x="186" y="514" type="line"/>
			<point x="50" y="513" type="line"/>
			<point x="50" y="317" type="line" smooth="yes"/>
			<point x="50" y="143"/>
			<point x="109" y="100"/>
		</contour>
		<contour>
			<point x="1092" y="60" type="curve" smooth="yes"/>
			<point x="1214" y="60"/>
			<point x="1260" y="106"/>
			<point x="1260" y="246" type="curve" smooth="yes"/>
			<point x="1260" y="388"/>
			<point x="1209" y="434"/>
			<point x="1044" y="434" type="curve" smooth="yes"/>
			<point x="987" y="434"/>
			<point x="931" y="424"/>
			<point x="901" y="409" type="curve"/>
			<point x="899" y="409" type="line"/>
			<point x="887" y="286" type="line"/>
			<point x="924" y="306"/>
			<point x="968" y="315"/>
			<point x="1022" y="315" type="curve" smooth="yes"/>
			<point x="1111" y="315"/>
			<point x="1125" y="298"/>
			<point x="1125" y="248" type="curve" smooth="yes"/>
			<point x="1125" y="198"/>
			<point x="1111" y="181"/>
			<point x="1049" y="181" type="curve" smooth="yes"/>
			<point x="1013" y="181"/>
			<point x="986" y="186"/>
			<point x="963" y="192" type="curve"/>
			<point x="959" y="191" type="line"/>
			<point x="957" y="77" type="line"/>
			<point x="994" y="66"/>
			<point x="1045" y="60"/>
		</contour>
		<contour>
			<point x="515" y="-20" type="curve"/>
			<point x="515" y="-24" type="line"/>
			<point x="690" y="-24" type="line"/>
			<point x="749" y="113" type="line"/>
			<point x="615" y="108" type="line"/>
			<point x="606" y="87" type="line"/>
			<point x="606" y="84" type="line"/>
			<point x="575" y="60"/>
			<point x="542" y="18"/>
		</contour>
		<contour>
			<point x="606" y="86" type="curve" smooth="yes"/>
			<point x="663" y="86"/>
			<point x="719" y="96"/>
			<point x="749" y="111" type="curve"/>
			<point x="751" y="111" type="line"/>
			<point x="763" y="220" type="line"/>
			<point x="726" y="200"/>
			<point x="682" y="191"/>
			<point x="628" y="191" type="curve" smooth="yes"/>
			<point x="539" y="191"/>
			<point x="525" y="208"/>
			<point x="525" y="258" type="curve" smooth="yes"/>
			<point x="525" y="298"/>
			<point x="539" y="315"/>
			<point x="601" y="315" type="curve" smooth="yes"/>
			<point x="637" y="315"/>
			<point x="664" y="310"/>
			<point x="687" y="304" type="curve"/>
			<point x="691" y="305" type="line"/>
			<point x="693" y="419" type="line"/>
			<point x="656" y="430"/>
			<point x="605" y="436"/>
			<point x="558" y="436" type="curve" smooth="yes"/>
			<point x="436" y="436"/>
			<point x="390" y="390"/>
			<point x="390" y="260" type="curve" smooth="yes"/>
			<point x="390" y="132"/>
			<point x="441" y="86"/>
		</contour>
		<contour>
			<point x="751" y="9" type="line"/>
			<point x="899" y="9" type="line"/>
			<point x="899" y="501" type="line"/>
			<point x="751" y="501" type="line"/>
		</contour>
		<contour>
			<point x="320" y="500" type="line"/>
			<point x="1330" y="500" type="line"/>
			<point x="1330" y="607" type="line"/>
			<point x="320" y="607" type="line"/>
		</contour>
	</outline>
</glyph>
<glyph name="dvSS_TT_VA" format="2">
	<advance width="929"/>
	<anchor x="725" y="-241" name="blwm.virama"/>
	<anchor x="858" y="607" name="abvm.bindu"/>
	<anchor x="800" y="-261" name="blwm.u"/>
	<anchor x="856" y="607" name="abvm.e"/>
	<outline>
		<contour>
			<point x="418" y="248" type="line"/>
			<point x="449" y="306" type="line"/>
			<point x="183" y="488" type="line"/>
			<point x="144" y="430" type="line"/>
		</contour>
		<contour>
			<point x="-50" y="500" type="line"/>
			<point x="429" y="500" type="line"/>
			<point x="429" y="607" type="line"/>
			<point x="-50" y="607" type="line"/>
		</contour>
		<contour>
			<point x="270" y="100" type="curve" smooth="yes"/>
			<point x="346" y="100"/>
			<point x="420" y="121"/>
			<point x="474" y="145" type="curve"/>
			<point x="441" y="243" type="line"/>
			<point x="395" y="227"/>
			<point x="345" y="219"/>
			<point x="294" y="219" type="curve" smooth="yes"/>
			<point x="219" y="219"/>
			<point x="186" y="239"/>
			<point x="186" y="302" type="curve" smooth="yes"/>
			<point x="186" y="514" type="line"/>
			<point x="50" y="513" type="line"/>
			<point x="50" y="317" type="line" smooth="yes"/>
			<point x="50" y="143"/>
			<point x="109" y="100"/>
		</contour>
		<contour>
			<point x="734" y="-171" type="line"/>
			<point x="855" y="-171" type="line"/>
			<point x="855" y="126" type="line"/>
			<point x="734" y="126" type="line"/>
		</contour>
		<contour>
			<point x="335" y="500" type="line"/>
			<point x="959" y="500" type="line"/>
			<point x="959" y="607" type="line"/>
			<point x="335" y="607" type="line"/>
		</contour>
		<contour>
			<point x="721" y="320" type="line"/>
			<point x="859" y="320" type="line"/>
			<point x="859" y="525" type="line"/>
			<point x="721" y="525" type="line"/>
		</contour>
		<contour>
			<point x="400" y="268" type="curve" smooth="yes"/>
			<point x="400" y="209"/>
			<point x="425" y="158"/>
			<point x="468" y="142" type="curve"/>
			<point x="468" y="140" type="line"/>
			<point x="428" y="129"/>
			<point x="400" y="85"/>
			<point x="400" y="24" type="curve" smooth="yes"/>
			<point x="400" y="-76"/>
			<point x="461" y="-131"/>
			<point x="612" y="-131" type="curve" smooth="yes"/>
			<point x="651" y="-131"/>
			<point x="710" y="-126"/>
			<point x="732" y="-117" type="curve"/>
			<point x="736" y="-120" type="line"/>
			<point x="799" y="-103" type="line"/>
			<point x="781" y="-6" type="line"/>
			<point x="748" y="-18"/>
			<point x="709" y="-28"/>
			<point x="646" y="-28" type="curve" smooth="yes"/>
			<point x="555" y="-28"/>
			<point x="528" y="-14"/>
			<point x="528" y="28" type="curve" smooth="yes"/>
			<point x="528" y="72"/>
			<point x="554" y="84"/>
			<point x="602" y="84" type="curve" smooth="yes"/>
			<point x="626" y="84"/>
			<point x="652" y="82"/>
			<point x="681" y="82" type="curve" smooth="yes"/>
			<point x="767" y="82"/>
			<point x="825" y="88"/>
			<point x="879" y="103" type="curve"/>
			<point x="879" y="224" type="line"/>
			<point x="877" y="225" type="line"/>
			<point x="833" y="214"/>
			<point x="778" y="208"/>
			<point x="716" y="208" type="curve" smooth="yes"/>
			<point x="574" y="208"/>
			<point x="544" y="222"/>
			<point x="544" y="264" type="curve" smooth="yes"/>
			<point x="544" y="306"/>
			<point x="569" y="320"/>
			<point x="695" y="320" type="curve" smooth="yes"/>
			<point x="851" y="320" type="line"/>
			<point x="851" y="432" type="line"/>
			<point x="830" y="434"/>
			<point x="706" y="436"/>
			<point x="647" y="436" type="curve" smooth="yes"/>
			<point x="471" y="436"/>
			<point x="400" y="388"/>
		</contour>
	</outline>
</glyph>
<glyph name="dvTTH_YA" format="2">
	<advance width="1262"/>
	<outline>
		<contour>
			<point x="308" y="3" type="curve" smooth="yes"/>
			<point x="527" y="3"/>
			<point x="581" y="42"/>
			<point x="581" y="219" type="curve" smooth="yes"/>
			<point x="581" y="399"/>
			<point x="527" y="438"/>
			<point x="308" y="438" type="curve" smooth="yes"/>
			<point x="89" y="438"/>
			<point x="35" y="399"/>
			<point x="35" y="219" type="curve" smooth="yes"/>
			<point x="35" y="42"/>
			<point x="89" y="3"/>
		</contour>
		<contour>
			<point x="308" y="123" type="curve" smooth="yes"/>
			<point x="193" y="123"/>
			<point x="168" y="139"/>
			<point x="168" y="224" type="curve" smooth="yes"/>
			<point x="168" y="307"/>
			<point x="193" y="318"/>
			<point x="308" y="318" type="curve" smooth="yes"/>
			<point x="423" y="318"/>
			<point x="448" y="307"/>
			<point x="448" y="224" type="curve" smooth="yes"/>
			<point x="448" y="144"/>
			<point x="423" y="123"/>
		</contour>
		<contour>
			<point x="239" y="382" type="line"/>
			<point x="377" y="382" type="line"/>
			<point x="377" y="501" type="line"/>
			<point x="239" y="501" type="line"/>
		</contour>
		<contour>
			<point x="-30" y="500" type="line"/>
			<point x="646" y="500" type="line"/>
			<point x="646" y="607" type="line"/>
			<point x="-30" y="607" type="line"/>
		</contour>
		<contour>
			<point x="640" y="500" type="line"/>
			<point x="1302" y="500" type="line"/>
			<point x="1302" y="607" type="line"/>
			<point x="640" y="607" type="line"/>
		</contour>
		<contour>
			<point x="904" y="29" type="curve" smooth="yes"/>
			<point x="961" y="29"/>
			<point x="1021" y="36"/>
			<point x="1052" y="47" type="curve"/>
			<point x="1056" y="45" type="line"/>
			<point x="1089" y="57"/>
			<point x="1109" y="68"/>
			<point x="1134" y="89" type="curve"/>
			<point x="1103" y="180" type="line"/>
			<point x="1068" y="153"/>
			<point x="1005" y="137"/>
			<point x="934" y="137" type="curve" smooth="yes"/>
			<point x="836" y="137"/>
			<point x="799" y="148"/>
			<point x="799" y="173" type="curve"/>
			<point x="916" y="173"/>
			<point x="955" y="219"/>
			<point x="955" y="305" type="curve" smooth="yes"/>
			<point x="955" y="394"/>
			<point x="912" y="434"/>
			<point x="786" y="434" type="curve" smooth="yes"/>
			<point x="353" y="434" type="line"/>
			<point x="353" y="326" type="line"/>
			<point x="406" y="326"/>
			<point x="685" y="326"/>
			<point x="745" y="326" type="curve" smooth="yes"/>
			<point x="805" y="326"/>
			<point x="820" y="317"/>
			<point x="820" y="289" type="curve" smooth="yes"/>
			<point x="820" y="261"/>
			<point x="805" y="252"/>
			<point x="745" y="252" type="curve" smooth="yes"/>
			<point x="667" y="252" type="line"/>
			<point x="667" y="195" type="line" smooth="yes"/>
			<point x="667" y="78"/>
			<point x="749" y="29"/>
		</contour>
		<contour>
			<point x="1054" y="9" type="line"/>
			<point x="1202" y="9" type="line"/>
			<point x="1202" y="501" type="line"/>
			<point x="1054" y="501" type="line"/>
		</contour>
	</outline>
</glyph>
<glyph name="dvT_MA" format="2">
	<advance width="949"/>
	<outline>
		<contour>
			<point x="242" y="9" type="curve"/>
			<point x="242" y="6" type="line"/>
			<point x="98" y="6" type="line"/>
			<point x="61" y="96"/>
			<point x="39" y="177"/>
			<point x="39" y="264" type="curve" smooth="yes"/>
			<point x="39" y="378"/>
			<point x="111" y="427"/>
			<point x="267" y="427" type="curve" smooth="yes"/>
			<point x="359" y="427"/>
			<point x="422" y="413"/>
			<point x="493" y="380" type="curve"/>
			<point x="450" y="289" type="line"/>
			<point x="444" y="288" type="line"/>
			<point x="396" y="298"/>
			<point x="363" y="302"/>
			<point x="305" y="302" type="curve" smooth="yes"/>
			<point x="215" y="302"/>
			<point x="187" y="269"/>
			<point x="187" y="221" type="curve" smooth="yes"/>
			<point x="187" y="166"/>
			<point x="209" y="86"/>
		</contour>
		<contour>
			<point x="-15" y="500" type="line"/>
			<point x="-15" y="607" type="line"/>
			<point x="408" y="607" type="line"/>
			<point x="408" y="500" type="line"/>
		</contour>
		<component base="dvMA" xOffset="328"/>
	</outline>
</glyph>
<glyph name="dvT_R" format="2">
	<advance width="340"/>
	<outline>
		<contour>
			<point x="-8" y="500" type="line"/>
			<point x="-8" y="607" type="line"/>
			<point x="420" y="607" type="line"/>
			<point x="420" y="500" type="line"/>
		</contour>
		<contour>
			<point x="1" y="7" type="line"/>
			<point x="1" y="12" type="line"/>
			<point x="97" y="92"/>
			<point x="260" y="199"/>
			<point x="375" y="254" type="curve"/>
			<point x="356" y="272"/>
			<point x="326" y="279"/>
			<point x="286" y="279" type="curve" smooth="yes"/>
			<point x="207" y="279"/>
			<point x="181" y="266"/>
			<point x="181" y="213" type="curve"/>
			<point x="33" y="213" type="line"/>
			<point x="33" y="370"/>
			<point x="90" y="407"/>
			<point x="223" y="407" type="curve" smooth="yes"/>
			<point x="300" y="407"/>
			<point x="376" y="387"/>
			<point x="417" y="358" type="curve"/>
			<point x="417" y="157" type="line"/>
			<point x="214" y="7" type="line"/>
		</contour>
	</outline>
</glyph>
<glyph name="dvV_RA" format="2">
	<advance width="611"/>
	<outline>
		<contour>
			<point x="247" y="80" type="curve" smooth="yes"/>
			<point x="302" y="80"/>
			<point x="363" y="81"/>
			<point x="400" y="99" type="curve"/>
			<point x="404" y="97" type="line"/>
			<point x="438" y="120" type="line"/>
			<point x="411" y="216" type="line"/>
			<point x="377" y="197"/>
			<point x="340" y="189"/>
			<point x="286" y="189" type="curve" smooth="yes"/>
			<point x="205" y="189"/>
			<point x="175" y="201"/>
			<point x="175" y="249" type="curve" smooth="yes"/>
			<point x="175" y="306"/>
			<point x="195" y="318"/>
			<point x="258" y="318" type="curve" smooth="yes"/>
			<point x="289" y="318"/>
			<point x="318" y="315"/>
			<point x="341" y="310" type="curve"/>
			<point x="345" y="311" type="line"/>
			<point x="345" y="427" type="line"/>
			<point x="306" y="437"/>
			<point x="263" y="443"/>
			<point x="213" y="443" type="curve" smooth="yes"/>
			<point x="78" y="443"/>
			<point x="25" y="389"/>
			<point x="25" y="255" type="curve" smooth="yes"/>
			<point x="25" y="135"/>
			<point x="69" y="80"/>
		</contour>
		<contour>
			<point x="136" y="-33" type="curve"/>
			<point x="136" y="-37" type="line"/>
			<point x="311" y="-37" type="line"/>
			<point x="403" y="104" type="line"/>
			<point x="407" y="104" type="line"/>
			<point x="420" y="130" type="line"/>
			<point x="296" y="132" type="line"/>
			<point x="245" y="79" type="line"/>
			<point x="245" y="76" type="line"/>
			<point x="210" y="51"/>
			<point x="168" y="8"/>
		</contour>
		<contour>
			<point x="403" y="9" type="line"/>
			<point x="551" y="9" type="line"/>
			<point x="551" y="501" type="line"/>
			<point x="403" y="501" type="line"/>
		</contour>
		<contour>
			<point x="-10" y="500" type="line"/>
			<point x="651" y="500" type="line"/>
			<point x="651" y="607" type="line"/>
			<point x="-10" y="607" type="line"/>
		</contour>
	</outline>
</glyph>
<glyph name="dvmAI_Reph" format="2">
	<advance width="0"/>
	<anchor x="-94" y="605" name="_abvm.e"/>
	<outline>
		<contour>
			<point x="-90" y="593" type="line"/>
			<point x="-174" y="546" type="line"/>
			<point x="-306" y="598"/>
			<point x="-519" y="773"/>
			<point x="-571" y="825" type="curve"/>
			<point x="-573" y="827"/>
			<point x="-571" y="830"/>
			<point x="-571" y="833" type="curve"/>
			<point x="-403" y="849" type="line"/>
			<point x="-169" y="607" type="line"/>
			<point x="-160" y="607" type="line"/>
			<point x="-208" y="664"/>
			<point x="-316" y="808"/>
			<point x="-341" y="876" type="curve"/>
			<point x="-342" y="878"/>
			<point x="-341" y="879"/>
			<point x="-341" y="881" type="curve"/>
			<point x="-188" y="881" type="line"/>
		</contour>
		<contour>
			<point x="-94" y="593" type="line"/>
			<point x="-94" y="605" type="line"/>
			<point x="-86" y="605" type="line"/>
			<point x="-100" y="645"/>
			<point x="-110" y="687"/>
			<point x="-110" y="732" type="curve" smooth="yes"/>
			<point x="-110" y="816"/>
			<point x="-57" y="850"/>
			<point x="28" y="850" type="curve" smooth="yes"/>
			<point x="50" y="850"/>
			<point x="78" y="846"/>
			<point x="95" y="840" type="curve"/>
			<point x="95" y="750" type="line"/>
			<point x="93" y="749" type="line"/>
			<point x="82" y="752"/>
			<point x="67" y="755"/>
			<point x="51" y="755" type="curve" smooth="yes"/>
			<point x="11" y="755"/>
			<point x="-6" y="743"/>
			<point x="-6" y="700" type="curve" smooth="yes"/>
			<point x="-6" y="672"/>
			<point x="1" y="632"/>
			<point x="9" y="606" type="curve"/>
			<point x="9" y="593" type="line"/>
		</contour>
	</outline>
</glyph>
<glyph name="dvmI.05" format="2">
	<advance width="268"/>
	<anchor x="774" y="652" name="abvm.i"/>
	<outline>
		<contour>
			<point x="60" y="9" type="line"/>
			<point x="60" y="501" type="line"/>
			<point x="208" y="501" type="line"/>
			<point x="208" y="9" type="line"/>
		</contour>
		<contour>
			<point x="-40" y="500" type="line"/>
			<point x="-40" y="607" type="line"/>
			<point x="308" y="607" type="line"/>
			<point x="308" y="500" type="line"/>
		</contour>
		<contour>
			<point x="208" y="624" type="curve"/>
			<point x="208" y="607" type="line"/>
			<point x="60" y="607" type="line"/>
			<point x="60" y="781"/>
			<point x="138" y="822"/>
			<point x="329" y="822" type="curve"/>
			<point x="501" y="822" type="line"/>
			<point x="668" y="822"/>
			<point x="770" y="798"/>
			<point x="770" y="650" type="curve"/>
			<point x="622" y="650" type="line"/>
			<point x="622" y="689"/>
			<point x="597" y="701"/>
			<point x="515" y="701" type="curve"/>
			<point x="329" y="701" type="line"/>
			<point x="250" y="701"/>
			<point x="208" y="691"/>
		</contour>
	</outline>
</glyph>
<glyph name="dvmI.17" format="2">
	<advance width="268"/>
	<anchor x="1223" y="652" name="abvm.i"/>
	<outline>
		<contour>
			<point x="60" y="9" type="line"/>
			<point x="60" y="501" type="line"/>
			<point x="208" y="501" type="line"/>
			<point x="208" y="9" type="line"/>
		</contour>
		<contour>
			<point x="-40" y="500" type="line"/>
			<point x="-40" y="607" type="line"/>
			<point x="308" y="607" type="line"/>
			<point x="308" y="500" type="line"/>
		</contour>
		<contour>
			<point x="208" y="624" type="curve"/>
			<point x="208" y="607" type="line"/>
			<point x="60" y="607" type="line"/>
			<point x="60" y="788"/>
			<point x="149" y="822"/>
			<point x="355" y="822" type="curve"/>
			<point x="918" y="822" type="line"/>
			<point x="1106" y="822"/>
			<point x="1213" y="798"/>
			<point x="1213" y="650" type="curve"/>
			<point x="1065" y="650" type="line"/>
			<point x="1065" y="689"/>
			<point x="1028" y="701"/>
			<point x="928" y="701" type="curve"/>
			<point x="355" y="701" type="line"/>
			<point x="257" y="701"/>
			<point x="208" y="691"/>
		</contour>
	</outline>
</glyph>
<glyph name="dvmI.24" format="2">
	<advance width="268"/>
	<anchor x="1476" y="652" name="abvm.i"/>
	<outline>
		<contour>
			<point x="60" y="9" type="line"/>
			<point x="60" y="501" type="line"/>
			<point x="208" y="501" type="line"/>
			<point x="208" y="9" type="line"/>
		</contour>
		<contour>
			<point x="-40" y="500" type="line"/>
			<point x="-40" y="607" type="line"/>
			<point x="308" y="607" type="line"/>
			<point x="308" y="500" type="line"/>
		</contour>
		<contour>
			<point x="208" y="624" type="curve"/>
			<point x="208" y="607" type="line"/>
			<point x="60" y="607" type="line"/>
			<point x="60" y="792"/>
			<point x="155" y="822"/>
			<point x="370" y="822" type="curve"/>
			<point x="1161" y="822" type="line"/>
			<point x="1361" y="822"/>
			<point x="1471" y="798"/>
			<point x="1471" y="650" type="curve"/>
			<point x="1323" y="650" type="line"/>
			<point x="1323" y="689"/>
			<point x="1280" y="701"/>
			<point x="1169" y="701" type="curve"/>
			<point x="370" y="701" type="line"/>
			<point x="261" y="701"/>
			<point x="208" y="691"/>
		</contour>
	</outline>
</glyph>
<glyph name="dvmI.28" format="2">
	<advance width="268"/>
	<anchor x="1625" y="652" name="abvm.i"/>
	<outline>
		<contour>
			<point x="60" y="9" type="line"/>
			<point x="60" y="501" type="line"/>
			<point x="208" y="501" type="line"/>
			<point x="208" y="9" type="line"/>
		</contour>
		<contour>
			<point x="-40" y="500" type="line"/>
			<point x="-40" y="607" type="line"/>
			<point x="308" y="607" type="line"/>
			<point x="308" y="500" type="line"/>
		</contour>
		<contour>
			<point x="208" y="624" type="curve"/>
			<point x="208" y="607" type="line"/>
			<point x="60" y="607" type="line"/>
			<point x="60" y="795"/>
			<point x="158" y="822"/>
			<point x="379" y="822" type="curve"/>
			<point x="1300" y="822" type="line"/>
			<point x="1507" y="822"/>
			<point x="1619" y="798"/>
			<point x="1619" y="650" type="curve"/>
			<point x="1471" y="650" type="line"/>
			<point x="1471" y="690"/>
			<point x="1424" y="701"/>
			<point x="1307" y="701" type="curve"/>
			<point x="379" y="701" type="line"/>
			<point x="263" y="701"/>
			<point x="208" y="691"/>
		</contour>
	</outline>
</glyph>
<glyph name="dvmI.29" format="2">
	<advance width="268"/>
	<anchor x="1662" y="654" name="abvm.i"/>
	<outline>
		<contour>
			<point x="60" y="9" type="line"/>
			<point x="60" y="501" type="line"/>
			<point x="208" y="501" type="line"/>
			<point x="208" y="9" type="line"/>
		</contour>
		<contour>
			<point x="-40" y="500" type="line"/>
			<point x="-40" y="607" type="line"/>
			<point x="308" y="607" type="line"/>
			<point x="308" y="500" type="line"/>
		</contour>
		<contour>
			<point x="208" y="624" type="curve"/>
			<point x="208" y="607" type="line"/>
			<point x="60" y="607" type="line"/>
			<point x="60" y="795"/>
			<point x="159" y="822"/>
			<point x="381" y="822" type="curve"/>
			<point x="1335" y="822" type="line"/>
			<point x="1543" y="822"/>
			<point x="1656" y="798"/>
			<point x="1656" y="650" type="curve"/>
			<point x="1508" y="650" type="line"/>
			<point x="1508" y="690"/>
			<point x="1460" y="701"/>
			<point x="1341" y="701" type="curve"/>
			<point x="381" y="701" type="line"/>
			<point x="264" y="701"/>
			<point x="208" y="691"/>
		</contour>
	</outline>
</glyph>
<glyph name="dvmII.003" format="2">
	<advance width="277"/>
	<outline>
		<contour>
			<point x="69" y="9" type="line"/>
			<point x="69" y="501" type="line"/>
			<point x="217" y="501" type="line"/>
			<point x="217" y="9" type="line"/>
		</contour>
		<contour>
			<point x="-153" y="652" type="curve"/>
			<point x="-153" y="650" type="line"/>
			<point x="-293" y="651" type="line"/>
			<point x="-295" y="655"/>
			<point x="-296" y="662"/>
			<point x="-296" y="667" type="curve" smooth="yes"/>
			<point x="-296" y="777"/>
			<point x="-246" y="829"/>
			<point x="-46" y="829" type="curve" smooth="yes"/>
			<point x="154" y="829"/>
			<point x="211" y="770"/>
			<point x="211" y="607" type="curve"/>
			<point x="78" y="607" type="line"/>
			<point x="78" y="620" type="line"/>
			<point x="78" y="702"/>
			<point x="67" y="721"/>
			<point x="-38" y="721" type="curve" smooth="yes"/>
			<point x="-143" y="721"/>
			<point x="-154" y="701"/>
			<point x="-154" y="669" type="curve" smooth="yes"/>
			<point x="-154" y="665"/>
			<point x="-154" y="657"/>
		</contour>
		<contour>
			<point x="-40" y="500" type="line"/>
			<point x="-40" y="607" type="line"/>
			<point x="317" y="607" type="line"/>
			<point x="317" y="500" type="line"/>
		</contour>
	</outline>
</glyph>
<glyph name="dvmII_Reph" format="2">
	<advance width="274"/>
	<outline>
		<contour>
			<point x="66" y="9" type="line"/>
			<point x="66" y="501" type="line"/>
			<point x="214" y="501" type="line"/>
			<point x="214" y="9" type="line"/>
		</contour>
		<contour>
			<point x="-70" y="652" type="curve"/>
			<point x="-70" y="650" type="line"/>
			<point x="-210" y="651" type="line"/>
			<point x="-212" y="655"/>
			<point x="-213" y="662"/>
			<point x="-213" y="667" type="curve" smooth="yes"/>
			<point x="-213" y="777"/>
			<point x="-160" y="829"/>
			<point x="-3" y="829" type="curve" smooth="yes"/>
			<point x="177" y="829"/>
			<point x="214" y="770"/>
			<point x="214" y="607" type="curve"/>
			<point x="81" y="607" type="line"/>
			<point x="81" y="620" type="line"/>
			<point x="81" y="702"/>
			<point x="69" y="721"/>
			<point x="5" y="721" type="curve" smooth="yes"/>
			<point x="-60" y="721"/>
			<point x="-71" y="701"/>
			<point x="-71" y="669" type="curve" smooth="yes"/>
			<point x="-71" y="665"/>
			<point x="-71" y="657"/>
		</contour>
		<contour>
			<point x="-43" y="500" type="line"/>
			<point x="-43" y="607" type="line"/>
			<point x="364" y="607" type="line"/>
			<point x="364" y="500" type="line"/>
		</contour>
		<contour>
			<point x="220" y="589" type="line"/>
			<point x="220" y="715" type="line" smooth="yes"/>
			<point x="220" y="801"/>
			<point x="267" y="836"/>
			<point x="351" y="836" type="curve" smooth="yes"/>
			<point x="370" y="836"/>
			<point x="394" y="833"/>
			<point x="414" y="828" type="curve"/>
			<point x="414" y="736" type="line"/>
			<point x="412" y="736" type="line"/>
			<point x="400" y="738"/>
			<point x="384" y="740"/>
			<point x="370" y="740" type="curve" smooth="yes"/>
			<point x="326" y="740"/>
			<point x="314" y="719"/>
			<point x="314" y="676" type="curve" smooth="yes"/>
			<point x="314" y="589" type="line"/>
		</contour>
	</outline>
</glyph>
<glyph name="dvmII_Reph_Anusvara.longer" format="2">
	<advance width="278"/>
	<outline>
		<contour>
			<point x="69" y="9" type="line"/>
			<point x="69" y="501" type="line"/>
			<point x="217" y="501" type="line"/>
			<point x="217" y="9" type="line"/>
		</contour>
		<contour>
			<point x="-40" y="500" type="line"/>
			<point x="-40" y="607" type="line"/>
			<point x="394" y="607" type="line"/>
			<point x="394" y="500" type="line"/>
		</contour>
		<contour>
			<point x="217" y="607" type="curve"/>
			<point x="69" y="607" type="line"/>
			<point x="69" y="624" type="line"/>
			<point x="69" y="691"/>
			<point x="26" y="701"/>
			<point x="-55" y="701" type="curve"/>
			<point x="-268" y="701" type="line"/>
			<point x="-351" y="701"/>
			<point x="-378" y="688"/>
			<point x="-378" y="650" type="curve"/>
			<point x="-526" y="650" type="line"/>
			<point x="-526" y="798"/>
			<point x="-423" y="822"/>
			<point x="-254" y="822" type="curve"/>
			<point x="-55" y="822" type="line"/>
			<point x="137" y="822"/>
			<point x="217" y="781"/>
		</contour>
		<contour>
			<point x="223" y="607" type="line"/>
			<point x="223" y="733" type="line" smooth="yes"/>
			<point x="223" y="819"/>
			<point x="270" y="854"/>
			<point x="354" y="854" type="curve" smooth="yes"/>
			<point x="373" y="854"/>
			<point x="397" y="851"/>
			<point x="417" y="846" type="curve"/>
			<point x="417" y="754" type="line"/>
			<point x="415" y="754" type="line"/>
			<point x="403" y="756"/>
			<point x="387" y="758"/>
			<point x="373" y="758" type="curve" smooth="yes"/>
			<point x="329" y="758"/>
			<point x="317" y="737"/>
			<point x="317" y="694" type="curve" smooth="yes"/>
			<point x="317" y="607" type="line"/>
		</contour>
		<contour>
			<point x="466" y="717" type="curve"/>
			<point x="468" y="699"/>
			<point x="470" y="687"/>
			<point x="470" y="675" type="curve" smooth="yes"/>
			<point x="470" y="663"/>
			<point x="468" y="649"/>
			<point x="466" y="632" type="curve"/>
			<point x="446" y="627"/>
			<point x="426" y="625"/>
			<point x="406" y="625" type="curve" smooth="yes"/>
			<point x="386" y="625"/>
			<point x="367" y="627"/>
			<point x="347" y="632" type="curve"/>
			<point x="345" y="648"/>
			<point x="343" y="661"/>
			<point x="343" y="674" type="curve" smooth="yes"/>
			<point x="343" y="685"/>
			<point x="345" y="699"/>
			<point x="347" y="717" type="curve"/>
			<point x="367" y="722"/>
			<point x="387" y="723"/>
			<point x="407" y="723" type="curve" smooth="yes"/>
			<point x="427" y="723"/>
			<point x="447" y="722"/>
		</contour>
	</outline>
</glyph>
<glyph name="dvmO_Anusvara" format="2">
	<advance width="268"/>
	<outline>
		<contour>
			<point x="60" y="9" type="line"/>
			<point x="60" y="501" type="line"/>
			<point x="208" y="501" type="line"/>
			<point x="208" y="9" type="line"/>
		</contour>
		<contour>
			<point x="-40" y="500" type="line"/>
			<point x="-40" y="607" type="line"/>
			<point x="308" y="607" type="line"/>
			<point x="308" y="500" type="line"/>
		</contour>
		<contour>
			<point x="-122" y="771" type="curve" smooth="yes"/>
			<point x="-196" y="858" type="line"/>
			<point x="-196" y="861" type="line"/>
			<point x="-24" y="861" type="line"/>
			<point x="194" y="606" type="line"/>
			<point x="70" y="606" type="line"/>
			<point x="63" y="610" type="line" smooth="yes"/>
			<point x="7" y="642"/>
			<point x="-57" y="694"/>
		</contour>
		<contour>
			<point x="309" y="791" type="curve"/>
			<point x="311" y="769"/>
			<point x="311" y="753"/>
			<point x="311" y="738" type="curve" smooth="yes"/>
			<point x="311" y="722"/>
			<point x="311" y="706"/>
			<point x="309" y="684" type="curve"/>
			<point x="282" y="679"/>
			<point x="258" y="677"/>
			<point x="233" y="677" type="curve" smooth="yes"/>
			<point x="209" y="677"/>
			<point x="185" y="679"/>
			<point x="161" y="684" type="curve"/>
			<point x="157" y="705"/>
			<point x="156" y="721"/>
			<point x="156" y="736" type="curve" smooth="yes"/>
			<point x="156" y="752"/>
			<point x="157" y="769"/>
			<point x="161" y="791" type="curve"/>
			<point x="185" y="796"/>
			<point x="210" y="798"/>
			<point x="235" y="798" type="curve" smooth="yes"/>
			<point x="259" y="798"/>
			<point x="283" y="796"/>
		</contour>
	</outline>
</glyph>
<glyph name="dvmU.short" format="2">
	<advance width="0"/>
	<anchor x="-180" y="-77" name="_blwm.u"/>
	<outline>
		<contour>
			<point x="-504" y="-176" type="curve"/>
			<point x="-504" y="-174" type="line"/>
			<point x="-325" y="-174" type="line"/>
			<point x="-301" y="-184"/>
			<point x="-268" y="-189"/>
			<point x="-222" y="-189" type="curve" smooth="yes"/>
			<point x="-153" y="-189"/>
			<point x="-138" y="-183"/>
			<point x="-138" y="-157" type="curve" smooth="yes"/>
			<point x="-138" y="-129"/>
			<point x="-153" y="-124"/>
			<point x="-183" y="-124" type="curve" smooth="yes"/>
			<point x="-202" y="-124"/>
			<point x="-227" y="-127"/>
			<point x="-241" y="-130" type="curve"/>
			<point x="-245" y="-127" type="line"/>
			<point x="-264" y="-43" type="line"/>
			<point x="-240" y="-34"/>
			<point x="-194" y="-26"/>
			<point x="-156" y="-26" type="curve" smooth="yes"/>
			<point x="-60" y="-26"/>
			<point x="-10" y="-51"/>
			<point x="-10" y="-163" type="curve" smooth="yes"/>
			<point x="-10" y="-257"/>
			<point x="-57" y="-297"/>
			<point x="-219" y="-297" type="curve" smooth="yes"/>
			<point x="-354" y="-297"/>
			<point x="-452" y="-254"/>
		</contour>
	</outline>
</glyph>
<glyph name="dvmUU.short" format="2">
	<advance width="0"/>
	<anchor x="-118" y="-81" name="_blwm.u"/>
	<outline>
		<contour>
			<point x="192" y="-147" type="curve"/>
			<point x="192" y="-149" type="line"/>
			<point x="13" y="-149" type="line"/>
			<point x="-10" y="-140"/>
			<point x="-50" y="-134"/>
			<point x="-90" y="-134" type="curve" smooth="yes"/>
			<point x="-159" y="-134"/>
			<point x="-174" y="-140"/>
			<point x="-174" y="-166" type="curve" smooth="yes"/>
			<point x="-174" y="-194"/>
			<point x="-159" y="-199"/>
			<point x="-129" y="-199" type="curve" smooth="yes"/>
			<point x="-110" y="-199"/>
			<point x="-85" y="-196"/>
			<point x="-71" y="-193" type="curve"/>
			<point x="-67" y="-196" type="line"/>
			<point x="-48" y="-280" type="line"/>
			<point x="-72" y="-289"/>
			<point x="-118" y="-297"/>
			<point x="-156" y="-297" type="curve" smooth="yes"/>
			<point x="-252" y="-297"/>
			<point x="-302" y="-272"/>
			<point x="-302" y="-160" type="curve" smooth="yes"/>
			<point x="-302" y="-66"/>
			<point x="-255" y="-26"/>
			<point x="-93" y="-26" type="curve" smooth="yes"/>
			<point x="42" y="-26"/>
			<point x="140" y="-69"/>
		</contour>
	</outline>
</glyph>
<glyph name="ff" format="2">
	<advance width="750"/>
	<outline>
		<contour>
			<point x="91" y="521" type="curve" smooth="yes"/>
			<point x="91" y="9" type="line"/>
			<point x="246" y="9" type="line"/>
			<point x="246" y="529" type="line" smooth="yes"/>
			<point x="246" y="563"/>
			<point x="262" y="580"/>
			<point x="307" y="580" type="curve" smooth="yes"/>
			<point x="328" y="580"/>
			<point x="353" y="578"/>
			<point x="377" y="575" type="curve"/>
			<point x="380" y="577" type="line"/>
			<point x="380" y="689" type="line"/>
			<point x="353" y="698"/>
			<point x="317" y="707"/>
			<point x="274" y="707" type="curve" smooth="yes"/>
			<point x="153" y="707"/>
			<point x="91" y="653"/>
		</contour>
		<contour>
			<point x="20" y="365" type="line"/>
			<point x="380" y="365" type="line"/>
			<point x="380" y="495" type="line"/>
			<point x="20" y="495" type="line"/>
		</contour>
		<contour>
			<point x="441" y="521" type="curve" smooth="yes"/>
			<point x="441" y="9" type="line"/>
			<point x="596" y="9" type="line"/>
			<point x="596" y="529" type="line" smooth="yes"/>
			<point x="596" y="563"/>
			<point x="612" y="580"/>
			<point x="657" y="580" type="curve" smooth="yes"/>
			<point x="678" y="580"/>
			<point x="703" y="578"/>
			<point x="727" y="575" type="curve"/>
			<point x="730" y="577" type="line"/>
			<point x="730" y="689" type="line"/>
			<point x="703" y="698"/>
			<point x="667" y="707"/>
			<point x="624" y="707" type="curve" smooth="yes"/>
			<point x="503" y="707"/>
			<point x="441" y="653"/>
		</contour>
		<contour>
			<point x="360" y="365" type="line"/>
			<point x="730" y="365" type="line"/>
			<point x="730" y="495" type="line"/>
			<point x="360" y="495" type="line"/>
		</contour>
	</outline>
</glyph>
